<svg width="72" height="72" viewBox="0 0 72 72" fill="none" xmlns="http://www.w3.org/2000/svg">
<rect width="72" height="72" rx="8" fill="#FA4354"/>
<path d="M40.5474 49.7816H16.3328C15.3447 49.7816 14.3978 49.3823 13.6986 48.67C12.9993 47.9578 12.6073 46.9933 12.6073 45.9869V27.0132C12.6073 26.0068 12.9993 25.0423 13.6986 24.3301C14.3978 23.6178 15.3447 23.2185 16.3328 23.2185H40.5474C41.5355 23.2185 42.4823 23.6178 43.1816 24.3301C43.8808 25.0423 44.2728 26.0068 44.2728 27.0132V45.9869C44.2728 46.9933 43.8808 47.9578 43.1816 48.67C42.4823 49.3823 41.5355 49.7816 40.5474 49.7816ZM47.9983 30.808V42.1921L56.2793 47.8153C56.5589 48.0068 56.8868 48.1166 57.2238 48.1329C57.5608 48.1493 57.8955 48.0722 58.1936 47.9111C58.4916 47.75 58.7392 47.5071 58.9135 47.2129C59.0854 46.9186 59.1771 46.58 59.1771 46.2367V26.7657C59.1771 26.4224 59.0854 26.0862 58.9135 25.7896C58.7392 25.4953 58.4916 25.2548 58.1936 25.0913C57.8955 24.9302 57.5608 24.8532 57.2238 24.8695C56.8868 24.8859 56.5612 24.9956 56.2793 25.1871L47.9983 30.808Z" fill="black"/>
<path d="M40.5495 52H16.3327C14.7554 52 13.2743 51.3742 12.1578 50.2392C11.0436 49.102 10.4292 47.5934 10.4292 45.9868V27.0132C10.4292 25.4066 11.0436 23.898 12.1578 22.7608C13.2743 21.6258 14.7554 21 16.3327 21H40.5472C42.1245 21 43.6056 21.6258 44.7221 22.7608C45.8363 23.8957 46.4507 25.4066 46.4507 27.0132V29.1919L55.0709 23.3399C55.6785 22.9266 56.3869 22.6884 57.1159 22.6533C57.8473 22.6183 58.574 22.7841 59.2183 23.1344C59.8648 23.487 60.4035 24.0101 60.7795 24.6499C61.1555 25.2875 61.3527 26.0207 61.3527 26.7633V46.2343C61.3527 46.9769 61.1555 47.7079 60.7795 48.3477C60.4035 48.9899 59.8625 49.513 59.2183 49.8656C58.5763 50.2159 57.8496 50.384 57.1182 50.349C56.3869 50.3116 55.6785 50.0758 55.0709 49.6624L46.4507 43.8081V45.9868C46.4507 47.5934 45.8363 49.102 44.7221 50.2392C43.6079 51.3742 42.1245 52 40.5472 52H40.5495ZM16.3327 25.4369C15.92 25.4369 15.5303 25.6004 15.2391 25.8993C14.9502 26.1935 14.7852 26.5998 14.7852 27.0132V45.9868C14.7852 46.4072 14.9456 46.8041 15.2391 47.1007C15.5303 47.3973 15.92 47.5631 16.3327 47.5631H40.5472C40.9599 47.5631 41.3496 47.3996 41.6408 47.1007C41.9343 46.8041 42.0947 46.4072 42.0947 45.9868V27.0132C42.0947 26.5928 41.9343 26.1959 41.6408 25.8993C41.3474 25.6004 40.9599 25.4369 40.5472 25.4369H16.3327ZM50.1785 41.0058L56.999 45.6389V27.3635L50.1785 31.9942V41.0035V41.0058Z" fill="#FFC619"/>
<path d="M29.004 31.5643L30.1137 33.8528C30.2054 34.042 30.3819 34.1728 30.5859 34.2031L33.0643 34.5697C33.5801 34.6468 33.7841 35.2913 33.4127 35.6603L31.6199 37.4421C31.4709 37.5892 31.4044 37.8017 31.4388 38.0072L31.8629 40.5222C31.95 41.0453 31.4136 41.4423 30.9528 41.1971L28.7358 40.0108C28.5524 39.9127 28.3346 39.9127 28.1512 40.0108L25.9342 41.1971C25.4734 41.4446 24.9347 41.0453 25.0241 40.5222L25.4482 38.0072C25.4826 37.7993 25.4161 37.5892 25.2671 37.4421L23.4743 35.6603C23.1006 35.2913 23.3069 34.6468 23.8227 34.5697L26.3011 34.2031C26.5051 34.1728 26.6816 34.042 26.7733 33.8528L27.883 31.5643C28.1122 31.0879 28.7794 31.0879 29.0086 31.5643H29.004Z" fill="white"/>
</svg>
