<svg width="264" height="264" viewBox="0 0 264 264" fill="none" xmlns="http://www.w3.org/2000/svg">
<rect width="264" height="264" rx="8" fill="#060809"/>
<path d="M144.44 169.239H78.5195C75.8295 169.239 73.2518 168.152 71.3482 166.213C69.4446 164.274 68.3773 161.649 68.3773 158.909V107.255C68.3773 104.515 69.4446 101.89 71.3482 99.9509C73.2518 98.0119 75.8295 96.9248 78.5195 96.9248H144.44C147.13 96.9248 149.708 98.0119 151.612 99.9509C153.515 101.89 154.583 104.515 154.583 107.255V158.909C154.583 161.649 153.515 164.274 151.612 166.213C149.708 168.152 147.13 169.239 144.44 169.239ZM164.725 117.586V148.578L187.268 163.886C188.03 164.408 188.922 164.707 189.84 164.751C190.757 164.796 191.669 164.586 192.48 164.147C193.291 163.708 193.965 163.047 194.44 162.246C194.908 161.445 195.158 160.523 195.158 159.589V106.582C195.158 105.647 194.908 104.732 194.44 103.924C193.965 103.123 193.291 102.468 192.48 102.023C191.669 101.585 190.757 101.375 189.84 101.419C188.922 101.464 188.036 101.763 187.268 102.284L164.725 117.586Z" fill="black"/>
<path d="M144.446 175.279H78.5191C74.225 175.279 70.1931 173.575 67.1536 170.485C64.1203 167.389 62.4476 163.282 62.4476 158.909V107.255C62.4476 102.882 64.1203 98.7747 67.1536 95.6787C70.1931 92.589 74.225 90.8853 78.5191 90.8853H144.44C148.734 90.8853 152.766 92.589 155.805 95.6787C158.839 98.7683 160.511 102.882 160.511 107.255V113.187L183.979 97.2553C185.633 96.13 187.561 95.4816 189.546 95.3862C191.537 95.2909 193.516 95.7422 195.269 96.6958C197.03 97.6558 198.496 99.0798 199.52 100.822C200.543 102.557 201.08 104.553 201.08 106.575V159.582C201.08 161.604 200.543 163.594 199.52 165.336C198.496 167.084 197.023 168.508 195.269 169.468C193.522 170.422 191.543 170.879 189.552 170.784C187.561 170.682 185.633 170.04 183.979 168.915L160.511 152.977V158.909C160.511 163.282 158.839 167.389 155.805 170.485C152.772 173.575 148.734 175.279 144.44 175.279H144.446ZM78.5191 102.964C77.3956 102.964 76.3346 103.409 75.5419 104.223C74.7555 105.024 74.3062 106.13 74.3062 107.255V158.909C74.3062 160.053 74.7431 161.134 75.5419 161.941C76.3346 162.748 77.3956 163.2 78.5191 163.2H144.44C145.563 163.2 146.624 162.755 147.417 161.941C148.216 161.134 148.653 160.053 148.653 158.909V107.255C148.653 106.111 148.216 105.03 147.417 104.223C146.618 103.409 145.563 102.964 144.44 102.964H78.5191ZM170.66 145.348L189.228 157.961V108.209L170.66 120.816V145.342V145.348Z" fill="white"/>
<path d="M113.015 119.645L116.036 125.875C116.286 126.39 116.766 126.746 117.322 126.829L124.069 127.827C125.473 128.037 126.029 129.791 125.017 130.796L120.137 135.646C119.731 136.047 119.55 136.625 119.644 137.185L120.798 144.032C121.035 145.456 119.575 146.536 118.32 145.869L112.285 142.639C111.786 142.372 111.193 142.372 110.694 142.639L104.658 145.869C103.404 146.543 101.937 145.456 102.18 144.032L103.335 137.185C103.429 136.619 103.248 136.047 102.842 135.646L97.9613 130.796C96.9439 129.791 97.5056 128.037 98.9099 127.827L105.657 126.829C106.212 126.746 106.693 126.39 106.943 125.875L109.963 119.645C110.587 118.348 112.404 118.348 113.028 119.645H113.015Z" fill="white"/>
</svg>
