<svg width="21" height="21" viewBox="0 0 21 21" fill="none" xmlns="http://www.w3.org/2000/svg">
<g clip-path="url(#clip0_2351_8742)">
<rect width="20.1316" height="20.1316" rx="10.0658" fill="#1F48B8"/>
<path d="M7.57786 6.0296L7.38477 6.29292L7.57786 6.57379L7.77095 6.29292L7.57786 6.0296Z" fill="#D360DF"/>
<path d="M12.9671 19.406L4.31284 17.5979V12.4019C4.31109 12.1178 4.37427 11.8373 4.49539 11.5807C4.61827 11.3242 4.79559 11.0983 5.01677 10.9196C5.2362 10.7411 5.49423 10.6143 5.77159 10.5488C6.04719 10.4832 6.33509 10.4805 6.61245 10.5411L11.6505 11.5944C12.0227 11.6711 12.3562 11.8736 12.5967 12.1677C12.8354 12.4619 12.9671 12.8298 12.9671 13.2094V19.406Z" fill="#C12254"/>
<path d="M6.84056 10.4006C5.99795 10.2426 5.66443 9.83887 5.40112 8.87339C5.1378 7.9079 5.73466 7.20573 6.3315 6.2578C6.92835 5.30987 7.47253 4.85346 8.71888 4.67792C9.96523 4.50237 11.1063 4.81835 11.5627 5.38009C12.0191 5.94183 12.2824 6.36313 12.3877 7.60948C12.4931 8.85584 12.9143 10.0144 11.6504 10.4533C10.3865 10.8921 9.10506 10.8921 6.84056 10.4006Z" fill="#1A0D2B"/>
<path d="M10.0881 23.7594C8.12199 23.8998 3.59299 23.9525 1.82001 22.9168C0.0470273 21.8811 -0.110957 20.4943 0.0470316 19.3708C0.20502 18.2474 0.626318 17.3521 0.854524 16.7026C1.08273 16.0531 1.18807 15.9478 1.3285 15.1929C1.5216 14.0343 1.53915 13.5253 1.9429 12.9109C2.34665 12.2965 3.593 12.2262 4.4356 12.2614C5.27821 12.2965 6.29635 12.4369 7.15651 12.5422C7.15651 12.5422 11.1238 13.2444 12.1595 13.4902C13.1952 13.7359 14.0553 13.7535 14.8277 16.2286C15.6001 18.7038 15.6528 23.3732 10.0881 23.7594Z" fill="#B9D5FE"/>
<path d="M11.036 17.3171C10.878 17.9666 9.84227 18.6864 9.12255 19.055C8.40282 19.4236 7.4198 19.6694 5.89258 19.2305C4.36536 18.7917 3.59296 18.5108 3.18922 18.3879C2.78547 18.2651 2.48705 18.0544 2.64504 19.1077C2.80303 20.1609 3.5403 22.9169 3.5403 22.9169L5.78724 23.7595L11.3344 25.357L13.4936 19.1779L11.036 17.3171Z" fill="#9EA1D9"/>
<path d="M2.83823 15.4914C2.61003 14.6312 2.34672 13.8062 2.11851 14.0344C1.89031 14.2626 1.76743 14.9648 1.67965 15.9127C1.59188 16.8606 0.801941 19.1251 0.801941 19.1251L2.75046 20.4066C2.6978 19.1251 2.39938 17.7032 2.83823 15.4914Z" fill="#9EA1D9"/>
<path d="M2.6802 16.5095C2.53099 16.0319 2.35545 15.563 2.15357 15.1052C2.01314 14.8594 1.94293 15.2632 1.94293 15.702C1.94293 16.1409 2.6802 16.5095 2.6802 16.5095Z" fill="#8286D1"/>
<path d="M13.9325 14.3328C13.3883 13.7184 12.8266 13.6482 12.1595 13.4902C11.4925 13.3322 8.24493 12.7354 7.38477 12.595L7.45497 12.7003C7.73583 13.0689 7.71828 13.3322 7.71828 13.6658C7.71828 13.9993 7.77095 13.9818 8.03427 14.0344C8.29758 14.0871 8.50823 13.8589 8.71889 13.7711C8.92954 13.6833 9.1753 13.736 9.50883 13.8413C9.84236 13.9466 10.0179 14.368 10.2461 14.8244C10.4743 15.2808 10.9834 16.1234 11.4398 16.1936C11.8962 16.2638 12.1244 16.334 12.3877 15.8601C12.651 15.3861 13.0021 14.7366 13.3532 14.6137C13.7043 14.4908 13.8447 14.4733 13.9325 14.3328Z" fill="#9EA1D9"/>
<path d="M6.50712 12.472C6.50712 12.3492 6.5071 12.2263 6.05069 12.1561C5.59428 12.0859 5.45385 12.0507 5.08521 12.1561C4.71657 12.2614 4.31282 12.6652 3.92663 13.104C3.44564 13.7024 3.04013 14.3567 2.71538 15.0525C2.5293 15.4493 2.42223 15.8786 2.39941 16.3164C2.43452 16.5271 2.46963 16.7728 2.68028 16.7377C3.1402 15.5014 3.83183 14.3637 4.71657 13.3849C5.15543 12.8758 5.66451 12.3667 6.26135 12.4369L6.50712 12.472Z" fill="#1A0D2B"/>
<path d="M11.0185 13.1215C10.9132 14.3152 10.7727 15.5967 10.8254 16.9659C10.8781 18.3352 10.9483 19.09 11.4398 20.0555C11.7031 19.8624 11.7207 19.7219 11.7733 19.4411C11.596 18.4982 11.5311 17.5378 11.5802 16.5797C11.6329 15.5967 11.8611 13.8061 11.8611 13.3146C11.8436 13.1391 11.7733 13.1215 11.4749 13.0338C11.1765 12.946 11.036 12.9284 11.0185 13.1215Z" fill="#1A0D2B"/>
<path d="M6.84055 9.47028C6.823 10.6289 6.85811 11.8752 6.92832 12.5949H6.70013C6.59656 12.5927 6.49298 12.6192 6.40345 12.672C6.31392 12.7247 6.2402 12.8014 6.19105 12.8934C5.64687 13.8413 5.57666 14.6488 5.80487 15.1228C6.03307 15.5967 6.91078 15.5792 7.68316 15.1228C8.45555 14.6663 9.91256 13.42 10.5621 13.1742C10.527 12.6125 10.5269 11.2959 10.5269 11.2959L6.84055 9.47028Z" fill="#955746"/>
<path d="M6.84057 10.9975C6.90376 11.6066 7.11441 12.191 7.45497 12.7003C7.73583 13.0689 7.71828 13.3322 7.71828 13.6657C7.71828 13.9993 7.77095 13.9817 8.03426 14.0344C8.29758 14.0871 8.50823 13.8588 8.71889 13.7711C8.92954 13.6833 9.1753 13.736 9.50883 13.8413C9.83007 13.5757 10.1847 13.3515 10.5621 13.1742C10.527 12.6125 10.527 11.2959 10.527 11.2959L6.84057 9.47028C6.82301 9.97935 6.84057 10.506 6.84057 10.9975Z" fill="#7D3236"/>
<path d="M9.38584 4.30929C9.59649 3.65978 9.03477 3.09805 8.10439 3.13315C7.17402 3.16826 6.43673 3.80022 6.45429 4.43217C6.47184 5.06412 7.06868 5.34499 7.78841 5.30988C8.50813 5.27477 9.2103 4.85347 9.38584 4.30929Z" fill="#1A0D2B"/>
<path d="M10.1058 5.06423C11.5804 5.13445 11.949 6.60901 12.0192 7.15319C12.0719 7.62294 12.042 8.09814 11.9314 8.55753C11.8402 8.90669 11.8156 9.27024 11.8612 9.62835C11.9086 10.1485 11.7928 10.6704 11.5277 11.1205C11.0713 11.9455 10.8255 12.3317 9.80738 12.4019C8.78923 12.4721 8.33282 12.0508 7.54287 11.3311C6.75293 10.6114 6.94603 10.6289 6.92847 9.59323C6.91092 8.55753 6.87581 8.11867 6.8407 7.57449C6.77049 6.62656 7.08648 4.88869 10.1058 5.06423Z" fill="#955746"/>
<path d="M8.98206 10.3128C9.10494 10.7868 9.2278 11.2256 9.64911 11.2607C9.78603 11.2804 9.92647 11.2593 10.0511 11.2C10.1757 11.1407 10.2793 11.0457 10.3513 10.9272C10.3829 10.8556 10.3952 10.7768 10.3864 10.699L8.98206 10.3128Z" fill="#7D2328"/>
<path d="M9.01729 10.2251C9.01378 10.2207 9.01202 10.2156 9.01202 10.2102C9.01026 10.2049 9.01202 10.1995 9.01378 10.1946C9.01553 10.1895 9.01729 10.1847 9.0208 10.1809C9.02607 10.1772 9.02957 10.1742 9.03484 10.1724C9.26831 10.1184 9.51056 10.1307 9.73701 10.2076C9.8634 10.2816 10.0003 10.3406 10.1408 10.3831C10.2145 10.4098 10.2794 10.4542 10.3321 10.5125C10.3848 10.5706 10.4216 10.6408 10.4392 10.7166H9.73701L9.01729 10.2251Z" fill="#7D2328"/>
<path d="M11.9138 8.62767C11.8997 8.58747 11.8874 8.54639 11.8787 8.50479C11.8365 8.41351 11.7698 8.33557 11.6856 8.27992C11.6031 8.2241 11.5047 8.1925 11.4047 8.18881C11.2818 8.18881 10.9307 8.27658 10.6323 8.18881C10.3339 8.10104 9.94769 7.82017 9.70193 7.74995C9.4983 7.69887 9.28589 7.70625 9.08753 7.77155C8.88741 7.83685 8.71186 7.9571 8.57845 8.11859C8.35025 8.3468 8.7189 8.50479 8.96466 8.71544C9.21042 8.92609 9.6317 9.13674 10.0003 8.7681C10.369 8.39946 10.5621 8.45212 10.6323 8.5399C10.7025 8.62767 10.7552 8.92609 10.8254 9.20696C10.8956 9.48783 11.2467 9.89158 11.5451 9.80381C11.6083 9.79152 11.6698 9.76448 11.7207 9.72481C11.7733 9.68531 11.8155 9.63423 11.8435 9.5756C11.8242 9.25786 11.8471 8.93908 11.9138 8.62767Z" fill="#7D3236"/>
<path d="M9.45609 7.80255L7.36713 8.10097" stroke="#D1BA92" stroke-width="0.5" stroke-miterlimit="10" stroke-linecap="round"/>
<path d="M11.1239 8.53996C11.2222 8.51064 11.3276 8.51696 11.4224 8.55751C11.4926 8.59262 11.475 8.46974 11.3697 8.43463C11.3205 8.41357 11.2679 8.40567 11.2152 8.41182C11.1626 8.41796 11.1134 8.43797 11.0713 8.46974C11.0011 8.53996 10.9659 8.59262 11.1239 8.53996Z" fill="#955746"/>
<path d="M7.05113 8.22387C6.38406 7.89034 6.22608 7.87278 6.06809 8.08344C5.9101 8.29409 5.98032 8.73295 6.06809 9.06648C6.15586 9.40001 6.12075 9.69843 6.36651 9.76865C6.60875 9.82868 6.86504 9.79744 7.08623 9.68088L7.05113 8.22387Z" fill="#955746"/>
<path d="M11.6856 5.78386L11.0185 5.1519L10.5095 4.99391L9.85997 4.87103L8.75404 4.99391L7.771 5.32744L7.08638 5.87163L6.71775 6.6089L6.61243 7.8026L6.87574 8.13613C7.49014 8.45211 7.78857 8.34678 8.70139 7.6095C9.61421 6.87222 10.4041 6.34559 10.3515 5.60831H10.4392C10.7201 5.99451 10.9483 6.17005 11.2819 6.5738C11.6154 6.97755 12.0367 7.46906 11.984 8.17123L12.1245 8.24146V6.97755L11.6856 5.78386Z" fill="#1A0D2B"/>
<path d="M9.71944 8.15368C9.57901 8.08346 9.36837 8.10102 9.05239 8.2239C9.03484 8.2239 9.01727 8.259 9.01727 8.27656L9.06994 8.31167C9.54391 8.29411 9.66678 8.39944 9.73699 8.4521H9.82477V8.41699C9.82828 8.36819 9.8195 8.31921 9.80194 8.27357C9.78263 8.22811 9.75455 8.18721 9.71944 8.15368Z" fill="#1A0D2B"/>
<path d="M11.4924 8.64519C11.3695 8.55742 11.1764 8.57497 10.8956 8.69785C10.878 8.69785 10.878 8.73296 10.878 8.75052C10.878 8.75982 10.8815 8.76877 10.8885 8.77527C10.8956 8.78194 10.9043 8.78562 10.9131 8.78562C11.3344 8.76807 11.4397 8.85584 11.4924 8.9085L11.5451 8.94361H11.5802C11.5977 8.92606 11.5977 8.92606 11.5977 8.9085C11.5977 8.89095 11.5626 8.6803 11.4924 8.64519Z" fill="#1A0D2B"/>
<path d="M11.5628 8.11855C11.4118 8.07449 11.2486 8.08695 11.1064 8.15366C11.0537 8.18877 11.001 8.25898 11.0361 8.25898C11.159 8.25003 11.2819 8.25003 11.4048 8.25898C11.5277 8.26003 11.6453 8.30357 11.7383 8.38186C11.791 8.45208 11.8261 8.38186 11.7559 8.25898C11.7383 8.22106 11.712 8.18841 11.6769 8.16384C11.6435 8.13926 11.6049 8.12364 11.5628 8.11855Z" fill="#1A0D2B"/>
<path d="M9.4035 7.74992C9.12264 7.73237 9.05242 7.74992 9.14019 7.69726C9.22796 7.6446 9.42106 7.57438 9.75459 7.64459C9.93715 7.65952 10.1092 7.7336 10.2461 7.85525C10.3163 7.92547 10.2637 7.96057 10.2285 7.99568C10.1934 8.03079 10.1583 7.99568 9.98278 7.92546C9.80197 7.83067 9.60538 7.77099 9.4035 7.74992Z" fill="#1A0D2B"/>
<path d="M9.59644 9.62826C9.78603 9.58894 9.98438 9.61369 10.1582 9.69848C10.3109 9.77554 10.4794 9.81188 10.6497 9.80381C10.7726 9.7687 10.8077 9.89157 10.5444 10.0671C10.2811 10.2427 10.2284 10.2778 9.92998 10.0496C9.63156 9.82136 9.4209 9.64582 9.59644 9.62826Z" fill="#7D3236"/>
<path d="M9.17529 10.2075C9.45616 10.3304 10.0004 10.5411 10.2812 10.6288C10.5621 10.7166 10.4567 10.7868 10.0881 10.9273C9.71947 11.0677 9.5966 10.9799 9.33328 10.7693C9.06997 10.5586 8.77154 10.0495 9.17529 10.2075Z" fill="#420F27"/>
<path d="M10.2813 10.6288C10.0004 10.541 9.4562 10.3304 9.17533 10.2075C8.89446 10.0846 8.98223 10.3831 9.17533 10.6288L10.2637 10.857C10.4743 10.7693 10.4919 10.699 10.2813 10.6288Z" fill="#CAD6E3"/>
<path d="M8.71906 9.90911C8.56107 10.0847 8.66638 10.2075 8.77171 10.1198C8.86826 10.0467 8.95603 9.96441 9.03502 9.874C9.12279 9.78623 8.92971 9.71602 8.71906 9.90911Z" fill="#7D3236"/>
<path d="M10.562 9.57561C10.562 9.39954 10.5497 9.22365 10.5269 9.04898C10.5163 8.94805 10.5286 8.84623 10.562 8.75056C10.5795 8.6979 10.5971 8.76812 10.6146 8.94366C10.6322 9.1192 10.7375 9.36496 10.7375 9.52295C10.7375 9.68094 10.5795 9.75115 10.562 9.57561Z" fill="#B86B56"/>
<path d="M9.47371 8.06594C9.57026 8.04873 9.67033 8.06734 9.7546 8.1186C9.80726 8.18881 9.8248 8.04838 9.71947 7.99571C9.67734 7.96289 9.62644 7.94358 9.57378 7.94042C9.51936 7.93743 9.4667 7.9506 9.42106 7.97816C9.35084 8.01327 9.29817 8.08349 9.47371 8.06594Z" fill="#955746"/>
<path d="M10.383 8.56448C10.5568 8.12264 10.4637 7.67202 10.1758 7.55844C9.88619 7.44469 9.5123 7.71082 9.33676 8.15283C9.16297 8.59485 9.256 9.04529 9.54564 9.15904C9.83353 9.27262 10.2092 9.0065 10.383 8.56448Z" stroke="#D1BA92" stroke-width="0.5" stroke-miterlimit="10" stroke-linecap="round"/>
<path d="M12.1472 8.95235C12.321 8.51033 12.2279 8.05971 11.94 7.94614C11.6504 7.83239 11.2747 8.09851 11.1009 8.54052C10.9271 8.98254 11.0202 9.43298 11.3081 9.54673C11.5977 9.66031 11.9734 9.39419 12.1472 8.95235Z" stroke="#D1BA92" stroke-width="0.5" stroke-miterlimit="10" stroke-linecap="round"/>
<path d="M10.3865 8.38184L11.0185 8.52227" stroke="#D1BA92" stroke-width="0.5" stroke-miterlimit="10" stroke-linecap="round"/>
<path d="M6.98096 8.59246C6.68254 8.27648 6.29635 8.1536 6.17347 8.29403C6.12081 8.36653 6.08744 8.45097 6.07516 8.53979C6.06287 8.62861 6.07165 8.71902 6.10325 8.8031C6.15591 9.01376 6.15591 9.22441 6.20857 9.25952C6.26123 9.29463 6.24369 9.22441 6.24369 9.04886C6.24369 8.87332 6.31391 8.82066 6.41923 8.73289C6.52456 8.64512 6.62988 8.71534 6.61233 8.768C6.59477 8.82066 6.45433 8.85577 6.45433 9.01376C6.45433 9.17175 6.52456 9.1893 6.68255 9.27707C6.84054 9.36484 6.91075 9.48772 6.94586 9.45261C6.98097 9.41751 6.78787 9.17175 6.77032 9.08397C6.75277 8.9962 6.75275 8.90843 6.84052 8.85577C6.92829 8.80311 7.06873 8.68023 6.98096 8.59246Z" fill="#7D3236"/>
<path d="M10.8079 10.6639C10.8255 10.8394 10.7728 11.0325 10.8781 10.9623C10.9835 10.8921 10.8781 10.5761 10.843 10.5234C10.8079 10.4708 10.7728 10.541 10.8079 10.6639Z" fill="#7D3236"/>
<path d="M8.40299 8.73305L8.22745 8.55751C8.21867 8.54663 8.20815 8.53767 8.19587 8.53171C8.18358 8.52556 8.17127 8.5224 8.15723 8.5224L8.10458 8.55751C8.08703 8.57506 8.06946 8.59262 8.06946 8.61017C8.06946 8.62773 8.08703 8.66284 8.10458 8.68039C8.159 8.74324 8.21693 8.80187 8.28012 8.85594C8.2889 8.86682 8.29942 8.87559 8.31171 8.88174C8.324 8.88788 8.3363 8.89104 8.35034 8.89104L8.40299 8.85594C8.42055 8.85594 8.43811 8.82082 8.43811 8.80327C8.43285 8.77694 8.42055 8.75254 8.40299 8.73305Z" fill="#B86B56"/>
<path d="M9.2631 10.2426L9.17533 10.2075C8.85935 10.0846 8.96469 10.3479 9.14023 10.5761L9.2631 10.2426Z" fill="#9DB4CC"/>
<path d="M9.47381 6.78448C9.47381 6.78448 8.561 7.76753 8.10459 8.13617C7.64818 8.50481 7.40241 9.10165 6.91089 7.82019L6.94601 7.99573C7.27954 8.85589 7.5253 8.85589 8.08704 8.36437C8.64877 7.87285 9.5967 6.80204 9.5967 6.80204L9.47381 6.78448Z" fill="#1A0D2B"/>
<path d="M5.99802 13.2795L6.71774 13.4902C6.84062 13.5428 6.75286 13.6657 6.5071 13.7008C6.29469 13.6866 6.0858 13.6331 5.8927 13.5429L5.99802 13.2795Z" fill="#7D3236"/>
</g>
<rect x="0.5" y="0.5" width="19.1316" height="19.1316" rx="9.5658" stroke="white"/>
<defs>
<clipPath id="clip0_2351_8742">
<rect width="20.1316" height="20.1316" rx="10.0658" fill="white"/>
</clipPath>
</defs>
</svg>
