<svg width="104" height="74" viewBox="0 0 104 74" fill="none" xmlns="http://www.w3.org/2000/svg">
<path fill-rule="evenodd" clip-rule="evenodd" d="M12.1907 39.9575C12.1907 58.6707 28.0595 73.8407 47.6348 73.8407C67.21 73.8407 83.0788 58.6707 83.0788 39.9575C83.0788 21.2443 67.21 6.07422 47.6348 6.07422C28.0595 6.07422 12.1907 21.2443 12.1907 39.9575Z" fill="#C6EBFA"/>
<mask id="mask0_2373_12414" style="mask-type:luminance" maskUnits="userSpaceOnUse" x="58" y="0" width="11" height="10">
<path fill-rule="evenodd" clip-rule="evenodd" d="M59.1802 0.855784C58.5085 1.61011 58.604 2.62427 58.6278 3.00373V3.00373C58.8568 6.6827 64.0737 10.1947 66.8044 9.13003V9.13003C66.8988 9.09328 67.7107 8.76375 68.1435 7.96189V7.96189C69.0649 6.25531 67.4128 3.99552 66.8245 3.19027V3.19027C66.2414 2.3926 64.6609 0.230473 62.1013 0.0247648V0.0247648C61.9891 0.0155779 61.7952 0 61.5541 0V0C60.8785 0 59.8331 0.122626 59.1802 0.855784" fill="white"/>
</mask>
<g mask="url(#mask0_2373_12414)">
<path fill-rule="evenodd" clip-rule="evenodd" d="M59.1802 0.855784C58.5085 1.61011 58.604 2.62427 58.6278 3.00373V3.00373C58.8568 6.6827 64.0737 10.1947 66.8044 9.13003V9.13003C66.8988 9.09328 67.7107 8.76375 68.1435 7.96189V7.96189C69.0649 6.25531 67.4128 3.99552 66.8245 3.19027V3.19027C66.2414 2.3926 64.6609 0.230473 62.1013 0.0247648V0.0247648C61.9891 0.0155779 61.7952 0 61.5541 0V0C60.8785 0 59.8331 0.122626 59.1802 0.855784" fill="#DB7502"/>
</g>
<path fill-rule="evenodd" clip-rule="evenodd" d="M74.2095 28.2189C73.8299 29.5731 72.707 33.8119 74.4658 37.7288C74.7598 38.3836 75.4734 39.93 76.4138 39.9272C77.5676 39.9236 78.462 37.6029 78.7536 36.6595C79.6908 33.6266 81.134 23.7199 82.455 10.25C80.1824 13.9346 76.2941 20.7826 74.2095 28.2189Z" stroke="#081F2D" stroke-width="2.036" stroke-linecap="round" stroke-linejoin="round"/>
<mask id="mask1_2373_12414" style="mask-type:luminance" maskUnits="userSpaceOnUse" x="51" y="3" width="14" height="11">
<path fill-rule="evenodd" clip-rule="evenodd" d="M53.7591 3.4933C53.1499 3.76131 52.2639 4.41818 51.8164 5.42275V5.42275C51.1878 6.83435 51.7316 8.24335 51.9039 8.68991V8.68991C53.2159 12.0891 57.6514 13.1402 60.6157 13.8426V13.8426C60.8825 13.9059 61.3505 14.0068 61.9296 13.9103V13.9103C63.3216 13.6784 64.4648 12.455 64.7295 11.5704V11.5704C65.5802 8.72626 59.1872 3.23087 55.129 3.23047V3.23047C54.6311 3.23027 54.169 3.31295 53.7591 3.4933" fill="white"/>
</mask>
<g mask="url(#mask1_2373_12414)">
<path fill-rule="evenodd" clip-rule="evenodd" d="M53.7591 3.4933C53.1499 3.76131 52.2639 4.41818 51.8164 5.42275V5.42275C51.1878 6.83435 51.7316 8.24335 51.9039 8.68991V8.68991C53.2159 12.0891 57.6514 13.1402 60.6157 13.8426V13.8426C60.8825 13.9059 61.3505 14.0068 61.9296 13.9103V13.9103C63.3216 13.6784 64.4648 12.455 64.7295 11.5704V11.5704C65.5802 8.72626 59.1872 3.23087 55.129 3.23047V3.23047C54.6311 3.23027 54.169 3.31295 53.7591 3.4933" fill="#DB7502"/>
</g>
<mask id="mask2_2373_12414" style="mask-type:luminance" maskUnits="userSpaceOnUse" x="47" y="8" width="15" height="11">
<path fill-rule="evenodd" clip-rule="evenodd" d="M48.43 9.14168C48.299 9.23175 47.7598 9.6204 47.4869 10.308V10.308C46.6362 12.4514 49.3287 15.0974 49.93 15.6882V15.6882C50.1439 15.8985 52.8016 18.4343 56.8677 18.7017V18.7017C57.9881 18.7754 59.4858 18.8535 60.4487 17.9164V17.9164C61.2499 17.1367 61.2861 16.0383 61.2884 15.839V15.839C61.3262 12.5011 54.7472 8.58028 50.6219 8.58008V8.58008C49.7547 8.58008 48.9962 8.75343 48.43 9.14168" fill="white"/>
</mask>
<g mask="url(#mask2_2373_12414)">
<path fill-rule="evenodd" clip-rule="evenodd" d="M48.43 9.14168C48.299 9.23175 47.7598 9.6204 47.4869 10.308V10.308C46.6362 12.4514 49.3287 15.0974 49.93 15.6882V15.6882C50.1439 15.8985 52.8016 18.4343 56.8677 18.7017V18.7017C57.9881 18.7754 59.4858 18.8535 60.4487 17.9164V17.9164C61.2499 17.1367 61.2861 16.0383 61.2884 15.839V15.839C61.3262 12.5011 54.7472 8.58028 50.6219 8.58008V8.58008C49.7547 8.58008 48.9962 8.75343 48.43 9.14168" fill="#DB7502"/>
</g>
<mask id="mask3_2373_12414" style="mask-type:luminance" maskUnits="userSpaceOnUse" x="44" y="15" width="15" height="10">
<path fill-rule="evenodd" clip-rule="evenodd" d="M44.6934 17.6724C44.483 17.9671 44.3291 18.2815 44.2202 18.6058V18.6058C44.0564 19.0949 43.9956 19.606 44.0002 20.1055V20.1055L48.3693 22.4835C48.728 22.8236 50.8976 24.8168 53.8548 24.4821V24.4821C54.1834 24.4451 57.2723 24.0563 57.9092 22.0567V22.0567C58.4871 20.2425 56.6298 18.4117 56.3301 18.1161V18.1161C54.7254 16.5344 52.0941 15.6838 49.6782 15.6836V15.6836C47.5871 15.6834 45.6576 16.3205 44.6934 17.6724" fill="white"/>
</mask>
<g mask="url(#mask3_2373_12414)">
<path fill-rule="evenodd" clip-rule="evenodd" d="M44.6934 17.6724C44.483 17.9671 44.3291 18.2815 44.2202 18.6058V18.6058C44.0564 19.0949 43.9956 19.606 44.0002 20.1055V20.1055L48.3693 22.4835C48.728 22.8236 50.8976 24.8168 53.8548 24.4821V24.4821C54.1834 24.4451 57.2723 24.0563 57.9092 22.0567V22.0567C58.4871 20.2425 56.6298 18.4117 56.3301 18.1161V18.1161C54.7254 16.5344 52.0941 15.6838 49.6782 15.6836V15.6836C47.5871 15.6834 45.6576 16.3205 44.6934 17.6724" fill="#EC7F02"/>
</g>
<path fill-rule="evenodd" clip-rule="evenodd" d="M74.7915 28.547C74.4119 29.9013 73.289 34.14 75.0479 38.0569C75.3418 38.7118 76.0555 40.2582 76.9958 40.2554C78.1496 40.2518 79.044 37.9311 79.3357 36.9876C80.2729 33.9547 81.7161 24.048 83.037 10.5781C80.7644 14.2627 76.8761 21.1108 74.7915 28.547" fill="#081F2D"/>
<mask id="mask4_2373_12414" style="mask-type:luminance" maskUnits="userSpaceOnUse" x="44" y="0" width="47" height="51">
<path fill-rule="evenodd" clip-rule="evenodd" d="M59.1803 0.856298C58.5387 1.57987 58.5991 2.55109 58.6273 3.00345V3.00345C58.6559 3.46839 58.7656 3.92674 58.9407 4.3757V4.3757C57.0619 3.37252 55.1182 2.89241 53.7575 3.49195V3.49195C53.184 3.74619 52.2825 4.37989 51.8162 5.42261V5.42261C51.1615 6.88114 51.7339 8.30491 51.9004 8.68637V8.68637C50.5076 8.46449 49.2616 8.57233 48.4303 9.14153V9.14153C47.7852 9.5821 47.5257 10.2096 47.4871 10.3049V10.3049C46.561 12.615 49.6521 15.4398 49.926 15.6844V15.6844C47.7409 15.6339 45.6956 16.268 44.6943 17.6732V17.6732C43.2346 19.7181 44.4835 22.6951 44.7806 23.3477V23.3477C47.6555 29.668 57.8819 29.9729 58.3806 29.9807V29.9807C54.9061 31.8742 52.879 34.0957 51.8653 35.3665V35.3665C49.4498 38.397 45.8747 44.7156 48.3223 48.3169V48.3169C48.5686 48.6837 49.5104 49.9511 50.893 50.0546V50.0546C53.2126 50.2267 55.0302 46.9911 56.5219 44.9033V44.9033C60.9417 38.7067 68.6242 33.9577 74.9821 33.3767V33.3767C77.1766 33.1744 81.372 33.5558 86.6217 35.7048V35.7048L90.35 14.0284C84.7107 11.781 80.6554 9.29491 78.0168 7.46431V7.46431C74.262 4.8632 71.1986 2.07636 65.7179 0.613443V0.613443C64.0763 0.175865 62.8345 0.0216841 61.8985 0.0214844V0.0214844C59.9765 0.0214844 59.3433 0.67176 59.1803 0.856298" fill="white"/>
</mask>
<g mask="url(#mask4_2373_12414)">
<path fill-rule="evenodd" clip-rule="evenodd" d="M59.1803 0.856298C58.5387 1.57987 58.5991 2.55109 58.6273 3.00345V3.00345C58.6559 3.46839 58.7656 3.92674 58.9407 4.3757V4.3757C57.0619 3.37252 55.1182 2.89241 53.7575 3.49195V3.49195C53.184 3.74619 52.2825 4.37989 51.8162 5.42261V5.42261C51.1615 6.88114 51.7339 8.30491 51.9004 8.68637V8.68637C50.5076 8.46449 49.2616 8.57233 48.4303 9.14153V9.14153C47.7852 9.5821 47.5257 10.2096 47.4871 10.3049V10.3049C46.561 12.615 49.6521 15.4398 49.926 15.6844V15.6844C47.7409 15.6339 45.6956 16.268 44.6943 17.6732V17.6732C43.2346 19.7181 44.4835 22.6951 44.7806 23.3477V23.3477C47.6555 29.668 57.8819 29.9729 58.3806 29.9807V29.9807C54.9061 31.8742 52.879 34.0957 51.8653 35.3665V35.3665C49.4498 38.397 45.8747 44.7156 48.3223 48.3169V48.3169C48.5686 48.6837 49.5104 49.9511 50.893 50.0546V50.0546C53.2126 50.2267 55.0302 46.9911 56.5219 44.9033V44.9033C60.9417 38.7067 68.6242 33.9577 74.9821 33.3767V33.3767C77.1766 33.1744 81.372 33.5558 86.6217 35.7048V35.7048L90.35 14.0284C84.7107 11.781 80.6554 9.29491 78.0168 7.46431V7.46431C74.262 4.8632 71.1986 2.07636 65.7179 0.613443V0.613443C64.0763 0.175865 62.8345 0.0216841 61.8985 0.0214844V0.0214844C59.9765 0.0214844 59.3433 0.67176 59.1803 0.856298" fill="url(#paint0_linear_2373_12414)"/>
</g>
<path d="M61.6016 28.5332C56.1163 30.5957 53.1749 33.7608 51.8811 35.3841" stroke="#081F2D"/>
<path d="M76.1928 19.6282C75.0377 19.4587 73.2239 19.3395 71.1114 19.8288C67.767 20.6031 65.6334 22.4488 64.7273 23.3386" stroke="#081F2D"/>
<path d="M66.8233 3.1875C68.3191 4.82138 68.8458 6.67814 68.1426 7.95932C68.0849 8.06437 67.6738 8.78814 66.8034 9.12746C66.0561 9.41865 65.1227 9.36732 64.1562 9.06355" stroke="#081F2D"/>
<path d="M60.6147 13.8409C60.9429 13.9237 61.4036 13.9928 61.9286 13.9086C63.3668 13.6775 64.4717 12.4265 64.7283 11.5687C65.4622 9.11558 60.8082 4.69067 56.9106 3.51953" stroke="#081F2D"/>
<path d="M56.8668 18.6998C57.1762 18.7587 59.2283 19.1198 60.4478 17.9145C61.23 17.1416 61.2843 16.105 61.2874 15.837C61.3254 12.4962 54.735 8.57134 50.6104 8.57813" stroke="#081F2D"/>
<path d="M48.5341 22.5423C48.8928 22.8824 51.0624 24.8753 54.0196 24.541C54.3482 24.5037 57.4371 24.115 58.0741 22.1153C58.6519 20.3012 56.7947 18.4704 56.4947 18.1747C54.5448 16.2528 51.08 15.4102 48.3267 15.8613" stroke="#081F2D"/>
<path fill-rule="evenodd" clip-rule="evenodd" d="M103.232 16.5253L94.9846 47.9019C88.9612 45.1254 84.6493 43.4496 81.8261 42.2877C80.1163 41.5835 78.4136 40.8919 76.7183 40.2134C76.7312 40.2164 76.7701 40.2256 76.8116 40.2326C76.8453 40.2416 76.8791 40.2456 76.9132 40.2496C76.9418 40.2534 76.9731 40.2546 76.9967 40.2532C78.1481 40.2512 79.0437 37.9317 79.3356 36.9868C80.2732 33.9549 81.717 24.049 83.0384 10.5781L103.232 16.5253Z" fill="#00A699"/>
<path d="M81.3521 42.0936V42.0936C83.3342 40.407 84.6588 38.127 85.1084 35.6268L89.2823 12.418" stroke="#081F2D"/>
<path d="M75.0479 38.0569C75.3418 38.7118 76.0555 40.258 76.9958 40.2552C78.1498 40.2518 79.0442 37.9309 79.3356 36.9876C80.2728 33.9547 81.7162 24.048 83.0372 10.5781" stroke="#081F2D" stroke-linecap="round" stroke-linejoin="round"/>
<mask id="mask5_2373_12414" style="mask-type:luminance" maskUnits="userSpaceOnUse" x="0" y="19" width="29" height="28">
<path fill-rule="evenodd" clip-rule="evenodd" d="M0 19H28.3623V46.1133H0V19Z" fill="white"/>
</mask>
<g mask="url(#mask5_2373_12414)">
<path fill-rule="evenodd" clip-rule="evenodd" d="M27.8757 29.0488C29.9022 36.2791 25.4138 43.7108 17.8506 45.6482C10.2872 47.5855 2.51327 43.2948 0.486576 36.0644C-1.53991 28.8343 2.94844 21.4025 10.5116 19.4652C18.075 17.5278 25.8492 21.8185 27.8757 29.0488Z" fill="#F16091"/>
</g>
<path d="M19.1431 31.4793L16.0735 29.7852" stroke="#081F2D"/>
<path d="M16.7222 32.1004L18.4944 29.166" stroke="#081F2D"/>
<path d="M11.0913 33.5418L8.02173 31.8477" stroke="#081F2D"/>
<path d="M8.67041 34.1629L10.4426 31.2285" stroke="#081F2D"/>
<path d="M18.4339 38.208C17.8341 38.1035 16.7321 37.9887 15.422 38.3126C14.1447 38.6282 13.2549 39.2159 12.783 39.5786" stroke="#081F2D"/>
<defs>
<linearGradient id="paint0_linear_2373_12414" x1="105.824" y1="7.67262" x2="59.3202" y2="0.947177" gradientUnits="userSpaceOnUse">
<stop stop-color="#9C5505"/>
<stop offset="1" stop-color="#EB7E01"/>
</linearGradient>
</defs>
</svg>
