<svg width="40" height="40" viewBox="0 0 40 40" fill="none" xmlns="http://www.w3.org/2000/svg">
<g filter="url(#filter0_b_0_319)">
<rect width="40" height="40" rx="8" fill="#060809" fill-opacity="0.2"/>
</g>
<path opacity="0.12" d="M10.8333 20.7012V19.2992C10.8333 15.6243 10.8333 13.7869 11.6044 12.7323C12.2769 11.8127 13.3095 11.2234 14.4434 11.1123C15.7436 10.985 17.3254 11.9197 20.4892 13.7892L21.6755 14.4902C24.7449 16.304 26.2796 17.2108 26.798 18.388C27.2504 19.4152 27.2504 20.5851 26.798 21.6123C26.2796 22.7895 24.7449 23.6964 21.6755 25.5101L20.4892 26.2111C17.3254 28.0806 15.7436 29.0153 14.4434 28.888C13.3095 28.7769 12.2769 28.1876 11.6044 27.268C10.8333 26.2134 10.8333 24.376 10.8333 20.7012Z" fill="white"/>
<path fill-rule="evenodd" clip-rule="evenodd" d="M20.8359 13.1226L20.8708 13.1432L22.0571 13.8442L22.0917 13.8647C23.5971 14.7543 24.7722 15.4487 25.6323 16.0694C26.4966 16.6932 27.1432 17.3106 27.4844 18.0854C28.0216 19.3052 28.0216 20.6945 27.4844 21.9143C27.1432 22.6891 26.4966 23.3066 25.6323 23.9304C24.7722 24.5511 23.5971 25.2455 22.0918 26.135L22.0571 26.1555L20.8708 26.8565L20.8358 26.8771C19.2835 27.7944 18.073 28.5097 17.0884 28.9759C16.1005 29.4437 15.2276 29.7181 14.3703 29.6341C13.0238 29.5022 11.7975 28.8025 10.999 27.7104C10.4906 27.015 10.2827 26.1239 10.1829 25.0354C10.0833 23.9506 10.0833 22.5445 10.0833 20.7414L10.0833 20.7009V19.2989L10.0833 19.2584C10.0833 17.4552 10.0833 16.0492 10.1829 14.9643C10.2827 13.8758 10.4906 12.9847 10.999 12.2894C11.7975 11.1973 13.0238 10.4975 14.3703 10.3656C15.2276 10.2816 16.1005 10.556 17.0884 11.0238C18.073 11.49 19.2835 12.2053 20.8359 13.1226ZM16.4465 12.3795C15.5275 11.9444 14.9594 11.8151 14.5165 11.8585C13.5953 11.9487 12.7562 12.4275 12.2098 13.1747C11.9472 13.5339 11.7695 14.0888 11.6766 15.1014C11.5841 16.1095 11.5833 17.4466 11.5833 19.2989V20.7009C11.5833 22.5531 11.5841 23.8902 11.6766 24.8984C11.7695 25.9109 11.9472 26.4658 12.2098 26.825C12.7562 27.5722 13.5953 28.051 14.5165 28.1413C14.9594 28.1846 15.5275 28.0553 16.4465 27.6202C17.3615 27.187 18.513 26.5074 20.1077 25.5651L21.294 24.8641C22.8413 23.9497 23.9568 23.2897 24.7545 22.7141C25.5545 22.1367 25.9344 21.7121 26.1116 21.3097C26.4792 20.4752 26.4792 19.5246 26.1116 18.69C25.9344 18.2876 25.5545 17.8631 24.7545 17.2857C23.9568 16.71 22.8413 16.05 21.294 15.1356L20.1077 14.4346C18.513 13.4924 17.3615 12.8128 16.4465 12.3795Z" fill="white"/>
<defs>
<filter id="filter0_b_0_319" x="-40" y="-40" width="120" height="120" filterUnits="userSpaceOnUse" color-interpolation-filters="sRGB">
<feFlood flood-opacity="0" result="BackgroundImageFix"/>
<feGaussianBlur in="BackgroundImageFix" stdDeviation="20"/>
<feComposite in2="SourceAlpha" operator="in" result="effect1_backgroundBlur_0_319"/>
<feBlend mode="normal" in="SourceGraphic" in2="effect1_backgroundBlur_0_319" result="shape"/>
</filter>
</defs>
</svg>
