<svg width="155" height="19" viewBox="0 0 155 19" fill="none" xmlns="http://www.w3.org/2000/svg">
<path d="M43.5547 14.9293H37.296V3.40479H39.2434V13.0629H43.5547V14.9279V14.9293Z" fill="white"/>
<path d="M45.8067 5.61771C45.4927 5.61771 45.2272 5.50464 45.0116 5.2785C44.7959 5.05236 44.6881 4.7747 44.6881 4.44694C44.6881 4.11918 44.7959 3.84008 45.0116 3.61108C45.2272 3.38208 45.4913 3.26758 45.8067 3.26758C46.1221 3.26758 46.3714 3.38208 46.5897 3.61108C46.808 3.84008 46.9172 4.11918 46.9172 4.44694C46.9172 4.7747 46.808 5.05236 46.5897 5.2785C46.3714 5.50464 46.1099 5.61771 45.8067 5.61771ZM46.742 14.9295H44.8795V6.59383H46.742V14.9281V14.9295Z" fill="white"/>
<path d="M52.6125 14.9295H51.0384L47.6692 6.59521H49.6004L51.8282 12.2487L54.0411 6.59521H55.9723L52.6112 14.9295H52.6125Z" fill="white"/>
<path d="M56.0263 10.8259V10.7615C56.0263 9.45331 56.4117 8.38988 57.1826 7.5712C57.9575 6.76397 58.944 6.36035 60.1408 6.36035C61.3375 6.36035 62.2162 6.76397 62.9318 7.5712C63.6569 8.37414 64.0194 9.36886 64.0194 10.5597C64.0194 10.7314 64.0086 10.9633 63.9884 11.2538H57.882C57.913 11.9165 58.1421 12.4461 58.5707 12.8454C58.9993 13.2433 59.5586 13.4422 60.2472 13.4422C61.0585 13.4422 61.7661 13.1216 62.3685 12.4819L63.4857 13.6369C62.5936 14.633 61.4938 15.1311 60.1852 15.1311C58.9534 15.1311 57.9521 14.7375 57.1812 13.9518C56.4103 13.166 56.0249 12.124 56.0249 10.8259H56.0263ZM57.9278 9.86551H62.1178C62.1178 9.37602 61.9197 8.95237 61.5248 8.59741C61.134 8.23101 60.6731 8.04781 60.1408 8.04781C59.5626 8.04781 59.0613 8.22529 58.6354 8.58024C58.2095 8.93519 57.9737 9.36314 57.9278 9.86408V9.86551Z" fill="white"/>
<path d="M67.1285 18.1183H65.266V6.59381H67.1285V7.7975C67.266 7.38244 67.5598 7.04752 68.0112 6.79276C68.4627 6.53656 69.0045 6.40918 69.6392 6.40918C70.7538 6.40918 71.685 6.82854 72.4303 7.66869C73.185 8.48737 73.5637 9.51788 73.5637 10.7616C73.5637 12.0054 73.1864 13.0359 72.4303 13.8703C71.6797 14.699 70.7497 15.1141 69.6392 15.1141C69.0058 15.1141 68.4627 14.9853 68.0112 14.7262C67.5598 14.4686 67.266 14.1308 67.1285 13.7172V18.1183ZM69.3872 13.305C70.0462 13.305 70.5961 13.0631 71.0368 12.5779C71.4829 12.1042 71.7066 11.4987 71.7066 10.7602C71.7066 10.0217 71.4829 9.41769 71.0368 8.94251C70.5961 8.45732 70.0462 8.21543 69.3872 8.21543C68.7282 8.21543 68.1474 8.45732 67.6757 8.94251C67.2188 9.42771 66.991 10.0331 66.991 10.7602C66.991 11.4873 67.2188 12.0927 67.6757 12.5779C68.1474 13.0631 68.7174 13.305 69.3872 13.305Z" fill="white"/>
<path d="M78.4369 6.40918C79.0704 6.40918 79.6121 6.53656 80.0609 6.79276C80.5097 7.04895 80.8021 7.38387 80.9396 7.7975V6.59381H82.8102V14.9281H80.9396V13.7172C80.8021 14.1323 80.5097 14.4686 80.0609 14.7262C79.6121 14.9853 79.0717 15.1141 78.4369 15.1141C77.3318 15.1141 76.3965 14.699 75.6311 13.8703C74.8804 13.0245 74.5057 11.9882 74.5057 10.7616C74.5057 9.53506 74.8804 8.49739 75.6311 7.66869C76.3912 6.82854 77.3265 6.40918 78.4369 6.40918ZM78.6809 13.3064C79.3601 13.3064 79.9275 13.0645 80.3844 12.5793C80.8507 12.0999 81.0838 11.4945 81.0838 10.7616C81.0838 10.0288 80.8507 9.42342 80.3844 8.94394C79.9275 8.45875 79.3601 8.21686 78.6809 8.21686C78.0016 8.21686 77.472 8.45875 77.0151 8.94394C76.5785 9.42342 76.3615 10.0288 76.3615 10.7616C76.3615 11.4945 76.5798 12.0999 77.0151 12.5793C77.4707 13.0645 78.0259 13.3064 78.6809 13.3064Z" fill="white"/>
<path d="M86.2779 14.9293H84.4302V6.59366H86.2779V7.82884C86.4652 7.38801 86.7644 7.04308 87.1754 6.79547C87.5865 6.54786 88.0649 6.42334 88.6121 6.42334C88.8358 6.42334 89.0231 6.43908 89.1754 6.472V8.39419C88.9113 8.3398 88.6525 8.31404 88.3991 8.31404C87.7495 8.31404 87.2347 8.51441 86.852 8.91517C86.4692 9.31592 86.2779 9.85837 86.2779 10.5425V14.9279V14.9293Z" fill="white"/>
<path d="M92.8937 14.9293H91.0231V8.3956H90.0123V6.59507H91.0231V3.40479H92.8937V6.59507H94.5891V8.3956H92.8937V14.9293Z" fill="white"/>
<path d="M95.0068 10.8259V10.7615C95.0068 9.45331 95.3923 8.38988 96.1632 7.5712C96.9381 6.76397 97.9246 6.36035 99.1213 6.36035C100.318 6.36035 101.197 6.76397 101.912 7.5712C102.637 8.37414 103 9.36886 103 10.5597C103 10.7314 102.989 10.9633 102.969 11.2538H96.8626C96.8936 11.9165 97.1227 12.4461 97.5513 12.8454C97.9798 13.2433 98.5391 13.4422 99.2278 13.4422C100.039 13.4422 100.747 13.1216 101.349 12.4819L102.466 13.6369C101.574 14.633 100.474 15.1311 99.1658 15.1311C97.934 15.1311 96.9327 14.7375 96.1618 13.9518C95.3909 13.166 95.0055 12.124 95.0055 10.8259H95.0068ZM96.9084 9.86551H101.098C101.098 9.37602 100.9 8.95237 100.505 8.59741C100.115 8.23101 99.6537 8.04781 99.1213 8.04781C98.5432 8.04781 98.0418 8.22529 97.616 8.58024C97.1901 8.93519 96.9543 9.36314 96.9084 9.86408V9.86551Z" fill="white"/>
<path d="M17.706 19H3.4703C2.54309 19 1.67248 18.6164 1.01616 17.9208C0.361181 17.2238 0 16.2992 0 15.3145V3.6855C0 2.70079 0.361181 1.7762 1.01616 1.07917C1.67248 0.383578 2.54309 0 3.4703 0H17.7046C18.6318 0 19.5024 0.383578 20.1588 1.07917C20.8137 1.77476 21.1749 2.70079 21.1749 3.6855V5.02087L26.2422 1.43412C26.5994 1.18079 27.0158 1.0348 27.4444 1.01333C27.8743 0.991864 28.3015 1.09348 28.6802 1.30817C29.0603 1.52429 29.377 1.8449 29.598 2.23706C29.819 2.6278 29.9349 3.07721 29.9349 3.53235V15.4662C29.9349 15.9214 29.819 16.3693 29.598 16.7615C29.377 17.1551 29.0589 17.4757 28.6802 17.6918C28.3029 17.9065 27.8756 18.0096 27.4457 17.9881C27.0158 17.9652 26.5994 17.8206 26.2422 17.5673L21.1749 13.9791V15.3145C21.1749 16.2992 20.8137 17.2238 20.1588 17.9208C19.5038 18.6164 18.6318 19 17.7046 19H17.706ZM3.4703 2.7194C3.22772 2.7194 2.99861 2.81959 2.82746 3.00279C2.65765 3.18313 2.56061 3.43217 2.56061 3.6855V15.3145C2.56061 15.5721 2.65495 15.8154 2.82746 15.9972C2.99861 16.179 3.22772 16.2806 3.4703 16.2806H17.7046C17.9472 16.2806 18.1763 16.1804 18.3475 15.9972C18.52 15.8154 18.6143 15.5721 18.6143 15.3145V3.6855C18.6143 3.42787 18.52 3.18456 18.3475 3.00279C18.175 2.81959 17.9472 2.7194 17.7046 2.7194H3.4703ZM23.3663 12.2616L27.3757 15.1012V3.90019L23.3663 6.73838V12.2602V12.2616Z" fill="white"/>
<path d="M10.919 6.47484L11.5712 7.87748C11.6251 7.99341 11.7289 8.07356 11.8489 8.09217L13.3057 8.31688C13.6089 8.36411 13.7289 8.75914 13.5106 8.98528L12.4567 10.0773C12.3691 10.1675 12.33 10.2977 12.3502 10.4237L12.5995 11.9652C12.6507 12.2858 12.3354 12.5291 12.0645 12.3788L10.7613 11.6517C10.6535 11.5916 10.5254 11.5916 10.4176 11.6517L9.1144 12.3788C8.84351 12.5305 8.5268 12.2858 8.57936 11.9652L8.82869 10.4237C8.8489 10.2963 8.80982 10.1675 8.72222 10.0773L7.66832 8.98528C7.44865 8.75914 7.56994 8.36411 7.87317 8.31688L9.33003 8.09217C9.44997 8.07356 9.55374 7.99341 9.60765 7.87748L10.2599 6.47484C10.3947 6.18287 10.7869 6.18287 10.9217 6.47484H10.919Z" fill="white"/>
<rect x="110.5" y="1.5" width="44" height="17" rx="8.5" stroke="white"/>
<path d="M122.69 6H125.35C126.01 6 126.537 6.16 126.93 6.48C127.33 6.79333 127.53 7.23333 127.53 7.8C127.53 8.10667 127.443 8.38667 127.27 8.64C127.097 8.88667 126.89 9.06333 126.65 9.17C127.017 9.30333 127.31 9.52 127.53 9.82C127.75 10.1133 127.86 10.4867 127.86 10.94C127.86 11.58 127.643 12.0833 127.21 12.45C126.783 12.8167 126.203 13 125.47 13H122.69V6ZM125.33 11.97C126.257 11.97 126.72 11.61 126.72 10.89C126.72 10.1633 126.257 9.8 125.33 9.8H123.86V11.97H125.33ZM125.28 8.79C125.653 8.79 125.933 8.71333 126.12 8.56C126.313 8.40667 126.41 8.18 126.41 7.88C126.41 7.58 126.313 7.35333 126.12 7.2C125.933 7.04 125.65 6.96 125.27 6.96H123.86V8.79H125.28ZM128.48 10.48C128.48 10.0133 128.577 9.58333 128.77 9.19C128.964 8.79667 129.244 8.48 129.61 8.24C129.984 8 130.427 7.88 130.94 7.88C131.46 7.88 131.907 7.99333 132.28 8.22C132.654 8.44 132.937 8.73667 133.13 9.11C133.324 9.47667 133.42 9.87 133.42 10.29C133.42 10.45 133.414 10.5967 133.4 10.73H129.55C129.597 11.17 129.75 11.5167 130.01 11.77C130.277 12.0233 130.614 12.15 131.02 12.15C131.354 12.15 131.63 12.0767 131.85 11.93C132.077 11.7767 132.224 11.5633 132.29 11.29L133.32 11.55C133.187 12.03 132.914 12.4067 132.5 12.68C132.094 12.9467 131.594 13.08 131 13.08C130.48 13.08 130.03 12.96 129.65 12.72C129.27 12.48 128.98 12.1633 128.78 11.77C128.58 11.37 128.48 10.94 128.48 10.48ZM132.26 9.91C132.227 9.55667 132.094 9.27333 131.86 9.06C131.634 8.84667 131.327 8.74 130.94 8.74C130.594 8.74 130.304 8.84333 130.07 9.05C129.837 9.25 129.68 9.53667 129.6 9.91H132.26ZM137.096 12.96C136.856 13.04 136.589 13.08 136.296 13.08C135.796 13.08 135.393 12.94 135.086 12.66C134.786 12.38 134.636 11.9633 134.636 11.41V8.89H133.756V7.96H134.636V6.46H135.726V7.96H137.026V8.89H135.726V11.35C135.726 11.5967 135.786 11.7867 135.906 11.92C136.033 12.0467 136.203 12.11 136.416 12.11C136.656 12.11 136.859 12.07 137.026 11.99L137.096 12.96ZM140.827 9.74C140.827 9.43333 140.727 9.19 140.527 9.01C140.334 8.83 140.07 8.74 139.737 8.74C139.43 8.74 139.177 8.82667 138.977 9C138.777 9.16667 138.66 9.4 138.627 9.7L137.647 9.52C137.727 9.02667 137.96 8.63 138.347 8.33C138.734 8.03 139.197 7.88 139.737 7.88C140.39 7.88 140.914 8.05667 141.307 8.41C141.7 8.75667 141.897 9.24 141.897 9.86V13H140.827V12.23C140.68 12.4833 140.464 12.69 140.177 12.85C139.89 13.0033 139.58 13.08 139.247 13.08C138.92 13.08 138.627 13.0167 138.367 12.89C138.114 12.7633 137.914 12.5867 137.767 12.36C137.627 12.1333 137.557 11.8767 137.557 11.59C137.557 11.0967 137.747 10.7133 138.127 10.44C138.514 10.1667 139.097 9.99 139.877 9.91L140.827 9.81V9.74ZM138.627 11.56C138.627 11.76 138.704 11.9233 138.857 12.05C139.01 12.1767 139.214 12.24 139.467 12.24C139.887 12.24 140.217 12.11 140.457 11.85C140.697 11.59 140.82 11.25 140.827 10.83V10.62L139.867 10.73C139.46 10.7767 139.15 10.8733 138.937 11.02C138.73 11.16 138.627 11.34 138.627 11.56Z" fill="white"/>
</svg>
