<svg width="148" height="23" viewBox="0 0 148 23" fill="none" xmlns="http://www.w3.org/2000/svg">
<path d="M32.0553 22.6096L28.7412 18.3246C28.6204 18.1686 28.4264 18.1107 28.2435 18.1765C28.0606 18.2424 27.9438 18.412 27.9438 18.6116V22.3224C27.9438 22.5762 27.7426 22.7833 27.4963 22.7833H25.2295C24.9831 22.7833 24.782 22.5762 24.782 22.3224V6.02981C24.782 5.77607 24.9831 5.56885 25.2295 5.56885H27.4963C27.7426 5.56885 27.9438 5.77607 27.9438 6.02981V14.0372C27.9438 14.237 28.0608 14.407 28.2441 14.4726C28.4272 14.5382 28.6215 14.48 28.742 14.3234L32.0102 10.0705C32.0979 9.95644 32.2194 9.89571 32.3608 9.89571H35.2666C35.4463 9.89571 35.6001 9.9978 35.6742 10.1666C35.7482 10.3354 35.7215 10.5217 35.6028 10.6608L31.0054 16.0563C30.8556 16.2323 30.8564 16.4923 31.0075 16.6671L35.6356 22.0158C35.7556 22.1543 35.7836 22.3417 35.7098 22.5111C35.6361 22.6804 35.4818 22.7833 35.3015 22.7833H32.4053C32.2644 22.7833 32.143 22.7231 32.0553 22.6096ZM148 16.0604C148 16.3596 147.987 16.6398 147.963 16.9007C147.94 17.1375 147.748 17.3164 147.517 17.3164H139.28C139.14 17.3164 139.019 17.3755 138.931 17.4877C138.844 17.5996 138.812 17.7332 138.842 17.874C138.981 18.5432 139.271 19.0864 139.712 19.5033C140.268 20.0304 140.954 20.2943 141.767 20.2943C142.852 20.2943 143.648 19.8502 144.155 18.9628C144.237 18.818 144.378 18.7355 144.541 18.7355H147.047C147.202 18.7355 147.335 18.8093 147.421 18.9422C147.506 19.075 147.52 19.23 147.459 19.3767C147.066 20.3321 146.448 21.1383 145.606 21.7947C144.582 22.5933 143.325 22.9927 141.834 22.9927C140.63 22.9927 139.55 22.7175 138.594 22.1669C137.638 21.6164 136.892 20.8369 136.358 19.8289C135.823 18.821 135.556 17.6576 135.556 16.3395C135.556 15.0056 135.82 13.8349 136.347 12.8266C136.874 11.8187 137.611 11.0433 138.56 10.5005C139.508 9.95786 140.6 9.68638 141.834 9.68638C143.024 9.68638 144.089 9.94987 145.03 10.4773C145.971 11.0044 146.701 11.7528 147.221 12.7221C147.74 13.6915 148 14.8042 148 16.0604ZM144.671 14.5818C144.562 13.9944 144.286 13.5062 143.844 13.1175C143.272 12.6138 142.572 12.3613 141.744 12.3613C140.961 12.3613 140.302 12.6059 139.768 13.0944C139.361 13.4663 139.074 13.9484 138.907 14.5403C138.867 14.6841 138.892 14.826 138.979 14.9457C139.066 15.0656 139.192 15.1298 139.337 15.1298H144.232C144.37 15.1298 144.489 15.0721 144.577 14.9624C144.665 14.8527 144.698 14.7215 144.671 14.5818ZM121.961 16.3395C121.961 15.0056 122.224 13.8387 122.751 12.8384C123.278 11.8381 124.008 11.0627 124.942 10.5121C125.875 9.96162 126.944 9.68638 128.149 9.68638C129.699 9.68638 130.983 10.0855 131.999 10.8844C132.868 11.5666 133.492 12.4847 133.871 13.637C133.918 13.7821 133.897 13.9289 133.81 14.0535C133.724 14.1779 133.595 14.2457 133.447 14.2457H130.939C130.758 14.2457 130.604 14.142 130.53 13.9719C130.345 13.5425 130.075 13.195 129.718 12.9316C129.289 12.6136 128.758 12.4545 128.126 12.4545C127.223 12.4545 126.508 12.7919 125.981 13.4665C125.454 14.1412 125.19 15.0988 125.19 16.3395C125.19 17.5648 125.454 18.5147 125.981 19.1891C126.508 19.8637 127.223 20.2011 128.126 20.2011C129.302 20.2011 130.103 19.7034 130.529 18.7083C130.602 18.5372 130.757 18.4333 130.939 18.4333H133.44C133.59 18.4333 133.719 18.5019 133.806 18.6279C133.892 18.754 133.912 18.9021 133.862 19.0478C133.482 20.1581 132.856 21.0623 131.988 21.7598C130.964 22.5816 129.684 22.9927 128.149 22.9927C126.944 22.9927 125.875 22.7175 124.942 22.1669C124.008 21.6164 123.278 20.841 122.751 19.8406C122.224 18.8403 121.961 17.6731 121.961 16.3395ZM117.567 10.9315C117.818 10.6858 118.098 10.4722 118.404 10.291C118.929 9.97982 119.516 9.7934 120.162 9.73207C120.292 9.71986 120.409 9.75992 120.505 9.85049C120.601 9.94094 120.651 10.0567 120.651 10.1912V12.6683C120.651 12.922 120.45 13.1291 120.203 13.1291H119.815C118.821 13.1291 118.073 13.3696 117.568 13.8504C117.064 14.331 116.812 15.1685 116.812 16.3627V22.3224C116.812 22.5762 116.61 22.7833 116.364 22.7833H114.097C113.851 22.7833 113.65 22.5762 113.65 22.3224V10.3567C113.65 10.1029 113.851 9.89571 114.097 9.89571H116.364C116.61 9.89571 116.812 10.1029 116.812 10.3567V10.5966C116.812 10.7846 116.914 10.9456 117.082 11.0202C117.25 11.0945 117.434 11.0608 117.567 10.9315ZM111.346 16.0604C111.346 16.3596 111.334 16.6398 111.309 16.9007C111.286 17.1375 111.095 17.3164 110.864 17.3164H102.626C102.486 17.3164 102.366 17.3755 102.278 17.4877C102.19 17.5996 102.159 17.7332 102.188 17.874C102.327 18.5432 102.617 19.0864 103.058 19.5033C103.615 20.0304 104.3 20.2943 105.113 20.2943C106.199 20.2943 106.994 19.8502 107.501 18.9628C107.584 18.818 107.724 18.7355 107.887 18.7355H110.394C110.549 18.7355 110.682 18.8093 110.767 18.9422C110.852 19.075 110.866 19.23 110.806 19.3767C110.412 20.3321 109.794 21.1383 108.952 21.7947C107.929 22.5933 106.671 22.9927 105.181 22.9927C103.976 22.9927 102.896 22.7175 101.94 22.1669C100.984 21.6164 100.239 20.8369 99.7043 19.8289C99.1699 18.821 98.9027 17.6576 98.9027 16.3395C98.9027 15.0056 99.1659 13.8349 99.693 12.8266C100.22 11.8187 100.958 11.0433 101.906 10.5005C102.855 9.95786 103.946 9.68638 105.181 9.68638C106.37 9.68638 107.436 9.94987 108.377 10.4773C109.318 11.0044 110.048 11.7528 110.567 12.7221C111.087 13.6915 111.346 14.8042 111.346 16.0604ZM108.018 14.5818C107.908 13.9944 107.632 13.5062 107.191 13.1175C106.619 12.6138 105.919 12.3613 105.091 12.3613C104.308 12.3613 103.649 12.6059 103.114 13.0944C102.708 13.4663 102.421 13.9484 102.254 14.5403C102.213 14.6841 102.238 14.826 102.326 14.9457C102.413 15.0656 102.538 15.1298 102.683 15.1298H107.578C107.716 15.1298 107.835 15.0721 107.923 14.9624C108.011 14.8527 108.044 14.7215 108.018 14.5818ZM91.5854 9.70952C93.1212 9.70952 94.3596 10.1941 95.3005 11.1634C96.2415 12.1327 96.7119 13.4859 96.7119 15.223V22.3224C96.7119 22.5762 96.5109 22.7833 96.2644 22.7833H93.9977C93.7513 22.7833 93.5502 22.5762 93.5502 22.3224V15.6648C93.5502 14.6569 93.3017 13.8853 92.805 13.3502C92.3081 12.8153 91.6306 12.5476 90.7724 12.5476C89.9141 12.5476 89.233 12.8153 88.7287 13.3502C88.224 13.8853 87.9719 14.6569 87.9719 15.6648V22.3224C87.9719 22.5762 87.7708 22.7833 87.5243 22.7833H85.2579C85.0115 22.7833 84.8103 22.5762 84.8103 22.3224V15.6648C84.8103 14.6569 84.5618 13.8853 84.0649 13.3502C83.5681 12.8153 82.8905 12.5476 82.0323 12.5476C81.1592 12.5476 80.4704 12.8153 79.9659 13.3502C79.4615 13.8853 79.2093 14.6569 79.2093 15.6648V22.3224C79.2093 22.5762 79.0083 22.7833 78.7618 22.7833H76.4951C76.2486 22.7833 76.0476 22.5762 76.0476 22.3224V10.3567C76.0476 10.1029 76.2486 9.89571 76.4951 9.89571H79.2093V10.3433C79.2093 10.5236 79.3029 10.6782 79.4602 10.7575C79.6177 10.8367 79.7936 10.8176 79.9318 10.7069C80.1865 10.5023 80.4694 10.3248 80.7789 10.1748C81.4188 9.86494 82.1227 9.70952 82.8905 9.70952C83.8691 9.70952 84.7424 9.92273 85.5102 10.3493C86.0843 10.6681 86.5623 11.0891 86.9426 11.6119C87.0291 11.7305 87.1525 11.7951 87.2966 11.7962C87.4406 11.7975 87.5651 11.7355 87.6537 11.6183C88.0248 11.1272 88.496 10.7152 89.0672 10.3842C89.8425 9.93436 90.682 9.70952 91.5854 9.70952ZM67.9175 9.70952C69.4532 9.70952 70.6916 10.1941 71.6326 11.1634C72.5736 12.1327 73.044 13.4859 73.044 15.223V22.3224C73.044 22.5762 72.8429 22.7833 72.5965 22.7833H70.3298C70.0833 22.7833 69.8822 22.5762 69.8822 22.3224V15.6648C69.8822 14.6569 69.6337 13.8853 69.1371 13.3502C68.6402 12.8153 67.9627 12.5476 67.1045 12.5476C66.2462 12.5476 65.565 12.8153 65.0607 13.3502C64.5561 13.8853 64.3039 14.6569 64.3039 15.6648V22.3224C64.3039 22.5762 64.1028 22.7833 63.8564 22.7833H61.5899C61.3436 22.7833 61.1424 22.5762 61.1424 22.3224V15.6648C61.1424 14.6569 60.8939 13.8853 60.397 13.3502C59.9001 12.8153 59.2226 12.5476 58.3644 12.5476C57.4913 12.5476 56.8025 12.8153 56.2979 13.3502C55.7935 13.8853 55.5414 14.6569 55.5414 15.6648V22.3224C55.5414 22.5762 55.3403 22.7833 55.0939 22.7833H52.8271C52.5807 22.7833 52.3796 22.5762 52.3796 22.3224V10.3567C52.3796 10.1029 52.5807 9.89571 52.8271 9.89571H55.5414V10.3433C55.5414 10.5236 55.635 10.6782 55.7923 10.7575C55.9498 10.8367 56.1256 10.8176 56.2638 10.7069C56.5186 10.5023 56.8014 10.3248 57.111 10.1748C57.7508 9.86494 58.4547 9.70952 59.2226 9.70952C60.2012 9.70952 61.0744 9.92273 61.8423 10.3493C62.4164 10.6681 62.8943 11.0891 63.2747 11.6119C63.3611 11.7305 63.4845 11.7951 63.6287 11.7962C63.7727 11.7975 63.8971 11.7355 63.9857 11.6183C64.3568 11.1272 64.8281 10.7152 65.3993 10.3842C66.1746 9.93436 67.014 9.70952 67.9175 9.70952ZM43.5269 22.9927C42.3223 22.9927 41.2383 22.7175 40.2747 22.1669C39.3112 21.6164 38.5548 20.8369 38.0052 19.8289C37.4556 18.821 37.1808 17.6576 37.1808 16.3395C37.1808 15.0211 37.463 13.8581 38.0277 12.8501C38.5923 11.8419 39.3638 11.0627 40.3426 10.5121C41.3211 9.96162 42.4128 9.68638 43.6173 9.68638C44.8218 9.68638 45.9132 9.96162 46.8919 10.5121C47.8706 11.0627 48.6421 11.8419 49.2067 12.8501C49.7712 13.8581 50.0536 15.0211 50.0536 16.3395C50.0536 17.6576 49.7638 18.821 49.1842 19.8289C48.6045 20.8369 47.8216 21.6164 46.8354 22.1669C45.8492 22.7175 44.7464 22.9927 43.5269 22.9927ZM43.5269 20.1546C44.0989 20.1546 44.6373 20.011 45.1416 19.7244C45.646 19.4374 46.0488 19.007 46.3499 18.4333C46.651 17.8593 46.8016 17.1615 46.8016 16.3395C46.8016 15.1143 46.4891 14.1723 45.8643 13.513C45.2395 12.8539 44.4752 12.5245 43.5721 12.5245C42.6687 12.5245 41.9121 12.8539 41.3023 13.513C40.6925 14.1723 40.3878 15.1143 40.3878 16.3395C40.3878 17.5648 40.6851 18.5068 41.2799 19.1659C41.8744 19.8251 42.6234 20.1546 43.5269 20.1546Z" fill="white"/>
<path fill-rule="evenodd" clip-rule="evenodd" d="M15.5751 15.5008L17.256 18.4998L18.9369 21.4988C19.1095 21.8067 19.1095 22.1591 18.9369 22.4669C18.7644 22.7749 18.4681 22.9511 18.123 22.9511H14.7612H11.3992C11.0542 22.9511 10.7578 22.7749 10.5853 22.4669C10.4127 22.1591 10.4127 21.8067 10.5853 21.4988L12.2662 18.4998L13.9472 15.5008C14.1197 15.193 14.4159 15.0168 14.7612 15.0168C15.1063 15.0168 15.4025 15.193 15.5751 15.5008ZM4.50261 17.2667C5.12925 17.2667 5.69721 17.529 6.10884 17.9529L6.1108 17.955C6.52237 18.379 6.77701 18.9641 6.77701 19.6095C6.77701 20.2549 6.52237 20.84 6.1108 21.264L6.10884 21.266C5.69721 21.6899 5.12925 21.9522 4.50261 21.9522C3.87611 21.9522 3.30802 21.6899 2.89639 21.266L2.89442 21.264C2.48286 20.84 2.22822 20.2549 2.22822 19.6095C2.22822 18.9641 2.48286 18.379 2.89442 17.955L2.89639 17.9529C3.30802 17.529 3.87611 17.2667 4.50261 17.2667ZM5.38703 18.6985C5.1611 18.4663 4.84844 18.3227 4.50261 18.3227C4.15679 18.3227 3.84412 18.4663 3.61819 18.6985C3.39285 18.9312 3.2534 19.2532 3.2534 19.6095C3.2534 19.9657 3.39285 20.2878 3.61819 20.5205C3.84412 20.7526 4.15679 20.8962 4.50261 20.8962C4.84844 20.8962 5.1611 20.7526 5.38703 20.5205C5.61237 20.2878 5.75183 19.9657 5.75183 19.6095C5.75183 19.2532 5.61237 18.9312 5.38703 18.6985ZM1.41876 0.250488H7.09379C7.87414 0.250488 8.51255 0.908095 8.51255 1.71184V8.96406C7.32273 8.82762 6.25536 8.2729 5.45257 7.44591C4.67477 6.64479 4.14514 5.58805 3.99241 4.40848C4.15705 4.24495 4.25948 4.01533 4.25948 3.76125C4.25948 3.26475 3.86885 2.86237 3.3869 2.86237C2.90502 2.86237 2.51426 3.26475 2.51426 3.76125C2.51426 4.16936 2.77858 4.51419 3.1405 4.62361C3.33497 5.96496 3.94675 7.16576 4.83555 8.08128C5.79663 9.07139 7.08163 9.72778 8.51255 9.86772V21.5384C8.51255 22.3422 7.87414 22.9998 7.09379 22.9998H1.41876C0.638408 22.9998 0 22.3422 0 21.5384V1.71184C0 0.908095 0.638408 0.250488 1.41876 0.250488Z" fill="white" fill-opacity="0.702"/>
<path fill-rule="evenodd" clip-rule="evenodd" d="M0.897959 17.8609L0 19.474V21.5386V21.5386C6.54107e-05 22.3425 0.638343 22.9999 1.41876 22.9999H7.09379C7.76013 22.9999 8.32286 22.5205 8.47304 21.8799L8.47331 21.8799L17.7975 5.1306C18.1855 4.43338 17.9579 3.53652 17.2832 3.13293L12.3757 0.197033C11.7009 -0.206625 10.8246 0.0294661 10.4363 0.726754L8.51255 4.18253L6.30219 8.15308C7.10491 8.68718 8.06129 8.99718 9.08784 8.99718C10.5076 8.99718 11.793 8.40439 12.7232 7.44615C13.4717 6.67502 13.9906 5.66699 14.1646 4.54071C13.9032 4.3854 13.7272 4.09461 13.7272 3.76149C13.7272 3.26499 14.1178 2.86261 14.5997 2.86261C15.0817 2.86261 15.4723 3.26499 15.4723 3.76149C15.4723 4.08908 15.3021 4.37577 15.0478 4.53283C14.8684 5.91076 14.2491 7.14545 13.3401 8.08152C12.2519 9.20261 10.7484 9.89606 9.08784 9.89606C7.90325 9.89606 6.79866 9.54307 5.86761 8.93377L0.897959 17.8609ZM4.50261 17.2669C5.12925 17.2669 5.69721 17.5292 6.10884 17.9532L6.1108 17.9552C6.52237 18.3792 6.77701 18.9643 6.77701 19.6097C6.77701 20.2552 6.52237 20.8402 6.1108 21.2642L6.10884 21.2662C5.69721 21.6902 5.12925 21.9525 4.50261 21.9525C3.87611 21.9525 3.30802 21.6902 2.89639 21.2662L2.89443 21.2642C2.48286 20.8402 2.22822 20.2552 2.22822 19.6097C2.22822 18.9643 2.48286 18.3792 2.89443 17.9552L2.89639 17.9532C3.30802 17.5292 3.87611 17.2669 4.50261 17.2669ZM5.38703 18.6987C5.1611 18.4666 4.84844 18.3229 4.50261 18.3229C4.15679 18.3229 3.84412 18.4666 3.61819 18.6987C3.39285 18.9314 3.2534 19.2535 3.2534 19.6097C3.2534 19.9659 3.39285 20.288 3.61819 20.5207C3.84412 20.7528 4.15679 20.8965 4.50261 20.8965C4.84844 20.8965 5.1611 20.7528 5.38703 20.5207C5.61237 20.288 5.75183 19.9659 5.75183 19.6097C5.75183 19.2535 5.61237 18.9314 5.38703 18.6987Z" fill="white"/>
</svg>
