<svg width="16" height="16" viewBox="0 0 16 16" fill="none" xmlns="http://www.w3.org/2000/svg">
<path d="M7.99965 12.7057C10.5985 12.7057 12.7053 10.5989 12.7053 8.00003C12.7053 5.40112 10.5985 3.29431 7.99965 3.29431C5.40076 3.29431 3.29395 5.40112 3.29395 8.00003C3.29395 10.5989 5.40076 12.7057 7.99965 12.7057Z" fill="url(#paint0_linear_1822_7693)"/>
<path fill-rule="evenodd" clip-rule="evenodd" d="M7.9999 12.7057C8.61789 12.7057 9.22974 12.584 9.8007 12.3475C10.3716 12.111 10.8904 11.7644 11.3273 11.3274C11.7643 10.8905 12.1109 10.3717 12.3474 9.80083C12.5838 9.22987 12.7055 8.61793 12.7055 8.00003C12.7055 7.38204 12.5838 6.77009 12.3474 6.19923C12.1109 5.62829 11.7643 5.10954 11.3273 4.67258C10.8904 4.23561 10.3716 3.889 9.8007 3.65252C9.22974 3.41604 8.61789 3.29431 7.9999 3.29431C6.75185 3.29431 5.55495 3.79009 4.67246 4.67258C3.78997 5.55506 3.29419 6.75198 3.29419 8.00003C3.29419 9.24799 3.78997 10.4449 4.67246 11.3274C5.55495 12.2099 6.75185 12.7057 7.9999 12.7057ZM7.9999 14.6664C9.76794 14.6664 11.4635 13.9641 12.7138 12.7138C13.9639 11.4636 14.6663 9.76807 14.6663 8.00003C14.6663 6.23199 13.9639 4.53635 12.7138 3.28615C11.4635 2.03597 9.76794 1.33362 7.9999 1.33362C6.23186 1.33362 4.53622 2.03597 3.28603 3.28615C2.03585 4.53635 1.3335 6.23199 1.3335 8.00003C1.3335 9.76807 2.03585 11.4636 3.28603 12.7138C4.53622 13.9641 6.23186 14.6664 7.9999 14.6664Z" fill="url(#paint1_linear_1822_7693)"/>
<path fill-rule="evenodd" clip-rule="evenodd" d="M12.9016 8.00003C12.9016 9.30005 12.3852 10.5468 11.466 11.466C10.5467 12.3853 9.29992 12.9017 7.9999 12.9017C6.69987 12.9017 5.45308 12.3853 4.53382 11.466C3.61456 10.5468 3.09813 9.30005 3.09813 8.00003C3.09813 6.70001 3.61456 5.4532 4.53382 4.53394C5.45308 3.61468 6.69987 3.09825 7.9999 3.09825C9.29992 3.09825 10.5467 3.61468 11.466 4.53394C12.3852 5.4532 12.9016 6.70001 12.9016 8.00003ZM7.9999 14.4703C9.71588 14.4703 11.3617 13.7886 12.5751 12.5752C13.7885 11.3618 14.4702 9.71601 14.4702 8.00003C14.4702 6.28396 13.7885 4.63822 12.5751 3.42479C11.3617 2.21137 9.71588 1.52968 7.9999 1.52968C6.28383 1.52968 4.6381 2.21137 3.42468 3.42479C2.21126 4.63822 1.52956 6.28396 1.52956 8.00003C1.52956 9.71601 2.21126 11.3618 3.42468 12.5752C4.6381 13.7886 6.28383 14.4703 7.9999 14.4703ZM12.7055 8.00003C12.7055 8.61793 12.5838 9.22987 12.3474 9.80083C12.1109 10.3717 11.7643 10.8905 11.3273 11.3274C10.8904 11.7644 10.3716 12.111 9.8007 12.3475C9.22974 12.584 8.61789 12.7057 7.9999 12.7057C7.38191 12.7057 6.77005 12.584 6.1991 12.3475C5.62818 12.111 5.10942 11.7644 4.67246 11.3274C4.23549 10.8905 3.88887 10.3717 3.65239 9.80083C3.41591 9.22987 3.29419 8.61793 3.29419 8.00003C3.29419 6.75198 3.78997 5.55506 4.67246 4.67258C5.55495 3.79009 6.75185 3.29431 7.9999 3.29431C9.24795 3.29431 10.4449 3.79009 11.3273 4.67258C12.2098 5.55506 12.7055 6.75198 12.7055 8.00003ZM14.6663 8.00003C14.6663 9.76807 13.9639 11.4636 12.7138 12.7138C11.4635 13.9641 9.76794 14.6664 7.9999 14.6664C6.23186 14.6664 4.53622 13.9641 3.28603 12.7138C2.03585 11.4636 1.3335 9.76807 1.3335 8.00003C1.3335 6.23199 2.03585 4.53635 3.28603 3.28615C4.53622 2.03597 6.23186 1.33362 7.9999 1.33362C9.76794 1.33362 11.4635 2.03597 12.7138 3.28615C13.9639 4.53635 14.6663 6.23199 14.6663 8.00003Z" fill="url(#paint2_linear_1822_7693)"/>
<path d="M8.72757 10H5.73059C5.53539 10 5.3521 9.91925 5.21393 9.77281C5.07604 9.62606 5 9.43141 5 9.22411V6.77589C5 6.56859 5.07604 6.37394 5.21393 6.22719C5.3521 6.08075 5.53539 6 5.73059 6H8.72729C8.92249 6 9.10578 6.08075 9.24395 6.22719C9.38184 6.37363 9.45788 6.56859 9.45788 6.77589V7.05702L10.5247 6.30192C10.5999 6.24859 10.6875 6.21785 10.7778 6.21333C10.8683 6.20881 10.9582 6.23021 11.0379 6.2754C11.118 6.3209 11.1846 6.3884 11.2312 6.47096C11.2777 6.55322 11.3021 6.64783 11.3021 6.74365V9.25605C11.3021 9.35186 11.2777 9.44618 11.2312 9.52874C11.1846 9.6116 11.1177 9.6791 11.0379 9.7246C10.9585 9.76979 10.8686 9.79149 10.778 9.78697C10.6875 9.78215 10.5999 9.75171 10.5247 9.69838L9.45788 8.94298V9.22411C9.45788 9.43141 9.38184 9.62606 9.24395 9.77281C9.10606 9.91925 8.92249 10 8.72729 10H8.72757ZM5.73059 6.5725C5.67952 6.5725 5.63129 6.5936 5.59525 6.63217C5.5595 6.67013 5.53908 6.72256 5.53908 6.77589V9.22411C5.53908 9.27834 5.55894 9.32957 5.59525 9.36783C5.63129 9.4061 5.67952 9.4275 5.73059 9.4275H8.72729C8.77836 9.4275 8.82659 9.4064 8.86262 9.36783C8.89894 9.32957 8.9188 9.27834 8.9188 9.22411V6.77589C8.9188 6.72166 8.89894 6.67043 8.86262 6.63217C8.82631 6.5936 8.77836 6.5725 8.72729 6.5725H5.73059ZM9.91921 8.58139L10.7633 9.17921V6.82109L9.91921 7.41861V8.58109V8.58139Z" fill="#975701"/>
<path d="M7.29829 7.36312L7.43561 7.65841C7.44696 7.68282 7.46881 7.69969 7.49406 7.70361L7.80077 7.75091C7.8646 7.76086 7.88986 7.84402 7.84389 7.89163L7.62202 8.12154C7.60358 8.14052 7.59535 8.16794 7.59961 8.19446L7.65209 8.51898C7.66288 8.58647 7.59648 8.63769 7.53946 8.60606L7.26509 8.45299C7.2424 8.44033 7.21544 8.44033 7.19275 8.45299L6.91838 8.60606C6.86135 8.638 6.79468 8.58647 6.80574 8.51898L6.85823 8.19446C6.86249 8.16764 6.85426 8.14052 6.83582 8.12154L6.61395 7.89163C6.5677 7.84402 6.59324 7.76086 6.65707 7.75091L6.96378 7.70361C6.98903 7.69969 7.01088 7.68282 7.02223 7.65841L7.15955 7.36312C7.18792 7.30165 7.27049 7.30165 7.29886 7.36312H7.29829Z" fill="#975701"/>
<defs>
<linearGradient id="paint0_linear_1822_7693" x1="7.99965" y1="1.33362" x2="7.99965" y2="14.6664" gradientUnits="userSpaceOnUse">
<stop stop-color="#F0D242"/>
<stop offset="0.2" stop-color="#FEF76F"/>
<stop offset="0.54" stop-color="#E1AF1B"/>
<stop offset="1" stop-color="#C27800"/>
</linearGradient>
<linearGradient id="paint1_linear_1822_7693" x1="7.9999" y1="1.33362" x2="7.9999" y2="14.6664" gradientUnits="userSpaceOnUse">
<stop stop-color="#C68A00"/>
<stop offset="0.53" stop-color="#FCF571"/>
<stop offset="1" stop-color="#B27801"/>
</linearGradient>
<linearGradient id="paint2_linear_1822_7693" x1="7.9999" y1="1.33362" x2="7.9999" y2="14.6664" gradientUnits="userSpaceOnUse">
<stop stop-color="#AE714D"/>
<stop offset="0.17" stop-color="#823300"/>
<stop offset="0.53" stop-color="#F6EC27"/>
<stop offset="1" stop-color="#E4B000"/>
</linearGradient>
</defs>
</svg>
