<svg width="130" height="23" viewBox="0 0 130 23" fill="none" xmlns="http://www.w3.org/2000/svg">
<g clip-path="url(#clip0_539_6472)">
<path d="M54.9719 18.0718H47.0726V4.12109H49.5305V15.8125H54.9719V18.0701V18.0718Z" fill="white"/>
<path d="M57.8143 6.79997C57.4179 6.79997 57.0828 6.6631 56.8107 6.38935C56.5385 6.11561 56.4025 5.77948 56.4025 5.38272C56.4025 4.98596 56.5385 4.64811 56.8107 4.3709C57.0828 4.09368 57.4162 3.95508 57.8143 3.95508C58.2123 3.95508 58.527 4.09368 58.8025 4.3709C59.0781 4.64811 59.2159 4.98596 59.2159 5.38272C59.2159 5.77948 59.0781 6.11561 58.8025 6.38935C58.527 6.6631 58.197 6.79997 57.8143 6.79997ZM58.9947 18.0721H56.644V7.98159H58.9947V18.0704V18.0721Z" fill="white"/>
<path d="M66.4042 18.0722H64.4174L60.165 7.9834H62.6025L65.4142 14.8271L68.2072 7.9834H70.6447L66.4025 18.0722H66.4042Z" fill="white"/>
<path d="M70.7127 13.1049V13.0269C70.7127 11.4433 71.1992 10.156 72.1721 9.16498C73.1502 8.18781 74.3953 7.69922 75.9058 7.69922C77.4162 7.69922 78.5253 8.18781 79.4285 9.16498C80.3436 10.137 80.8012 11.3411 80.8012 12.7826C80.8012 12.9905 80.7875 13.2712 80.762 13.6229H73.0549C73.0941 14.4251 73.3832 15.0661 73.9241 15.5495C74.465 16.0312 75.1709 16.272 76.0401 16.272C77.0641 16.272 77.9571 15.8839 78.7175 15.1095L80.1276 16.5077C79.0015 17.7135 77.6135 18.3165 75.9619 18.3165C74.4072 18.3165 73.1434 17.84 72.1704 16.8888C71.1975 15.9376 70.711 14.6763 70.711 13.1049H70.7127ZM73.1128 11.9423H78.4011C78.4011 11.3498 78.151 10.8369 77.6527 10.4072C77.1594 9.9637 76.5776 9.74193 75.9058 9.74193C75.176 9.74193 74.5433 9.95677 74.0058 10.3865C73.4683 10.8161 73.1706 11.3342 73.1128 11.9406V11.9423Z" fill="white"/>
<path d="M84.7253 21.932H82.3745V7.98132H84.7253V9.43842C84.8988 8.93597 85.2696 8.53054 85.8394 8.22214C86.4092 7.91201 87.093 7.75781 87.8942 7.75781C89.3009 7.75781 90.4763 8.26546 91.4169 9.28248C92.3694 10.2735 92.8474 11.521 92.8474 13.0266C92.8474 14.5322 92.3711 15.7797 91.4169 16.7898C90.4695 17.7929 89.2958 18.2954 87.8942 18.2954C87.0947 18.2954 86.4092 18.1394 85.8394 17.8258C85.2696 17.514 84.8988 17.1051 84.7253 16.6044V21.932ZM87.5761 16.1054C88.4079 16.1054 89.1019 15.8126 89.6581 15.2252C90.2211 14.6517 90.5035 13.9189 90.5035 13.0249C90.5035 12.1308 90.2211 11.3997 89.6581 10.8245C89.1019 10.2371 88.4079 9.94433 87.5761 9.94433C86.7443 9.94433 86.0112 10.2371 85.4159 10.8245C84.8392 11.4118 84.5518 12.1447 84.5518 13.0249C84.5518 13.905 84.8392 14.6379 85.4159 15.2252C86.0112 15.8126 86.7307 16.1054 87.5761 16.1054Z" fill="white"/>
<path d="M98.9981 7.75781C99.7976 7.75781 100.481 7.91201 101.048 8.22214C101.614 8.53228 101.983 8.9377 102.157 9.43842V7.98132H104.518V18.0701H102.157V16.6044C101.983 17.1068 101.614 17.514 101.048 17.8258C100.481 18.1394 99.7993 18.2954 98.9981 18.2954C97.6033 18.2954 96.4229 17.7929 95.4567 16.7898C94.5093 15.7658 94.0364 14.5114 94.0364 13.0266C94.0364 11.5418 94.5093 10.2856 95.4567 9.28248C96.4161 8.26546 97.5965 7.75781 98.9981 7.75781ZM99.306 16.1071C100.163 16.1071 100.879 15.8143 101.456 15.227C102.045 14.6466 102.339 13.9137 102.339 13.0266C102.339 12.1395 102.045 11.4066 101.456 10.8262C100.879 10.2389 100.163 9.94606 99.306 9.94606C98.4487 9.94606 97.7802 10.2389 97.2036 10.8262C96.6525 11.4066 96.3786 12.1395 96.3786 13.0266C96.3786 13.9137 96.6542 14.6466 97.2036 15.227C97.7785 15.8143 98.4793 16.1071 99.306 16.1071Z" fill="white"/>
<path d="M108.894 18.0721H106.562V7.98157H108.894V9.47678C109.131 8.94315 109.508 8.5256 110.027 8.22586C110.546 7.92612 111.15 7.77539 111.84 7.77539C112.123 7.77539 112.359 7.79445 112.551 7.8343V10.1612C112.218 10.0953 111.891 10.0641 111.572 10.0641C110.752 10.0641 110.102 10.3067 109.619 10.7918C109.136 11.2769 108.894 11.9336 108.894 12.7618V18.0704V18.0721Z" fill="white"/>
<path d="M117.244 18.0718H114.883V10.1626H113.608V7.98301H114.883V4.12109H117.244V7.98301H119.384V10.1626H117.244V18.0718Z" fill="white"/>
<path d="M119.912 13.1049V13.0269C119.912 11.4433 120.398 10.156 121.371 9.16498C122.349 8.18781 123.594 7.69922 125.105 7.69922C126.615 7.69922 127.724 8.18781 128.627 9.16498C129.542 10.137 130 11.3411 130 12.7826C130 12.9905 129.986 13.2712 129.961 13.6229H122.254C122.293 14.4251 122.582 15.0661 123.123 15.5495C123.664 16.0312 124.37 16.272 125.239 16.272C126.263 16.272 127.156 15.8839 127.916 15.1095L129.326 16.5077C128.2 17.7135 126.812 18.3165 125.161 18.3165C123.606 18.3165 122.342 17.84 121.369 16.8888C120.396 15.9376 119.91 14.6763 119.91 13.1049H119.912ZM122.312 11.9423H127.6C127.6 11.3498 127.35 10.8369 126.852 10.4072C126.358 9.9637 125.776 9.74193 125.105 9.74193C124.375 9.74193 123.742 9.95677 123.205 10.3865C122.667 10.8161 122.369 11.3342 122.312 11.9406V11.9423Z" fill="white"/>
<path d="M22.3456 21.3536H4.38C3.64688 21.3536 2.94438 21.0573 2.42558 20.5289C1.90679 20.0005 1.61592 19.2849 1.61592 18.5382V4.46095C1.61592 3.71421 1.90679 2.99865 2.42558 2.47022C2.94438 1.94178 3.64688 1.64551 4.38 1.64551H22.3456C23.0788 1.64551 23.7813 1.94178 24.3001 2.47022C24.8188 2.99865 25.1097 3.71421 25.1097 4.46095V18.5382C25.1097 19.2849 24.8188 20.0005 24.3001 20.5289C23.7813 21.0573 23.0788 21.3536 22.3456 21.3536ZM27.8738 7.27639V15.7227L34.0177 19.8948C34.2252 20.0368 34.4684 20.1183 34.7185 20.1304C34.9685 20.1425 35.2169 20.0854 35.438 19.9658C35.6591 19.8463 35.8428 19.6661 35.9721 19.4478C36.0997 19.2295 36.1677 18.9782 36.1677 18.7236V4.2773C36.1677 4.02261 36.0997 3.77312 35.9721 3.55308C35.8428 3.33477 35.6591 3.15632 35.438 3.03504C35.2169 2.91549 34.9685 2.85831 34.7185 2.87044C34.4684 2.88257 34.2269 2.964 34.0177 3.10607L27.8738 7.27639Z" fill="black"/>
<path d="M22.3473 23H4.38C3.20973 23 2.1109 22.5357 1.28253 21.6936C0.45586 20.8499 0 19.7306 0 18.5386V4.46139C0 3.26938 0.45586 2.15013 1.28253 1.30637C2.1109 0.464331 3.20973 0 4.38 0H22.3456C23.5159 0 24.6147 0.464331 25.4431 1.30637C26.2698 2.1484 26.7256 3.26938 26.7256 4.46139V6.07789L33.1213 1.73605C33.572 1.42938 34.0976 1.25266 34.6385 1.22667C35.1812 1.20068 35.7204 1.32369 36.1983 1.58358C36.678 1.8452 37.0777 2.2333 37.3567 2.70802C37.6357 3.18102 37.7819 3.72505 37.7819 4.27601V18.7223C37.7819 19.2732 37.6357 19.8155 37.3567 20.2902C37.0777 20.7667 36.6763 21.1548 36.1983 21.4164C35.7221 21.6763 35.1829 21.8011 34.6402 21.7751C34.0976 21.7473 33.572 21.5724 33.1213 21.2657L26.7256 16.9221V18.5386C26.7256 19.7306 26.2698 20.8499 25.4431 21.6936C24.6164 22.5357 23.5159 23 22.3456 23H22.3473ZM4.38 3.2919C4.07382 3.2919 3.78466 3.41318 3.56863 3.63495C3.35431 3.85326 3.23184 4.15473 3.23184 4.46139V18.5386C3.23184 18.8505 3.35091 19.145 3.56863 19.365C3.78466 19.5851 4.07382 19.7081 4.38 19.7081H22.3456C22.6518 19.7081 22.941 19.5868 23.157 19.365C23.3747 19.145 23.4938 18.8505 23.4938 18.5386V4.46139C23.4938 4.14953 23.3747 3.85499 23.157 3.63495C22.9393 3.41318 22.6518 3.2919 22.3456 3.2919H4.38ZM29.4914 14.843L34.5518 18.2805V4.72128L29.4914 8.15699V14.8413V14.843Z" fill="#FA4354"/>
<path d="M13.7813 7.83833L14.6045 9.53626C14.6726 9.67659 14.8035 9.77362 14.9549 9.79614L16.7937 10.0682C17.1764 10.1253 17.3278 10.6035 17.0522 10.8773L15.7221 12.1992C15.6115 12.3084 15.5622 12.466 15.5877 12.6185L15.9024 14.4845C15.967 14.8726 15.569 15.1671 15.2271 14.9852L13.5822 14.1051C13.4462 14.0323 13.2846 14.0323 13.1485 14.1051L11.5037 14.9852C11.1618 15.1689 10.762 14.8726 10.8284 14.4845L11.1431 12.6185C11.1686 12.4643 11.1192 12.3084 11.0087 12.1992L9.67852 10.8773C9.40126 10.6035 9.55435 10.1253 9.93706 10.0682L11.7758 9.79614C11.9272 9.77362 12.0582 9.67659 12.1262 9.53626L12.9495 7.83833C13.1196 7.48488 13.6146 7.48488 13.7847 7.83833H13.7813Z" fill="white"/>
</g>
<defs>
<clipPath id="clip0_539_6472">
<rect width="130" height="23" fill="white"/>
</clipPath>
</defs>
</svg>
