<svg width="194" height="23" viewBox="0 0 194 23" fill="none" xmlns="http://www.w3.org/2000/svg">
<g clip-path="url(#clip0_1489_7709)">
<path d="M54.9719 18.0726H47.0726V4.12183H49.5305V15.8133H54.9719V18.0708V18.0726Z" fill="white"/>
<path d="M57.8143 6.80034C57.4179 6.80034 57.0829 6.66347 56.8107 6.38972C56.5385 6.11597 56.4025 5.77985 56.4025 5.38309C56.4025 4.98633 56.5385 4.64848 56.8107 4.37126C57.0829 4.09405 57.4162 3.95544 57.8143 3.95544C58.2123 3.95544 58.527 4.09405 58.8025 4.37126C59.0781 4.64848 59.2159 4.98633 59.2159 5.38309C59.2159 5.77985 59.0781 6.11597 58.8025 6.38972C58.527 6.66347 58.197 6.80034 57.8143 6.80034ZM58.9947 18.0725H56.644V7.98196H58.9947V18.0708V18.0725Z" fill="white"/>
<path d="M66.4042 18.0725H64.4175L60.165 7.98364H62.6025L65.4142 14.8273L68.2072 7.98364H70.6447L66.4025 18.0725H66.4042Z" fill="white"/>
<path d="M70.7128 13.1052V13.0273C70.7128 11.4437 71.1992 10.1564 72.1722 9.16535C73.1502 8.18817 74.3954 7.69958 75.9058 7.69958C77.4163 7.69958 78.5253 8.18817 79.4285 9.16535C80.3437 10.1373 80.8012 11.3415 80.8012 12.783C80.8012 12.9909 80.7876 13.2716 80.7621 13.6233H73.055C73.0941 14.4255 73.3833 15.0665 73.9242 15.5499C74.4651 16.0316 75.171 16.2724 76.0402 16.2724C77.0642 16.2724 77.9572 15.8843 78.7175 15.1098L80.1276 16.508C79.0016 17.7139 77.6136 18.3168 75.962 18.3168C74.4073 18.3168 73.1434 17.8404 72.1705 16.8892C71.1975 15.938 70.7111 14.6767 70.7111 13.1052H70.7128ZM73.1128 11.9427H78.4011C78.4011 11.3501 78.1511 10.8373 77.6527 10.4076C77.1594 9.96407 76.5777 9.7423 75.9058 9.7423C75.1761 9.7423 74.5433 9.95714 74.0058 10.3868C73.4683 10.8165 73.1707 11.3345 73.1128 11.9409V11.9427Z" fill="white"/>
<path d="M84.7253 21.9327H82.3745V7.98193H84.7253V9.43903C84.8988 8.93658 85.2696 8.53115 85.8394 8.22275C86.4092 7.91262 87.093 7.75842 87.8942 7.75842C89.3009 7.75842 90.4762 8.26607 91.4169 9.28309C92.3694 10.2741 92.8474 11.5216 92.8474 13.0272C92.8474 14.5328 92.3711 15.7803 91.4169 16.7904C90.4694 17.7935 89.2958 18.296 87.8942 18.296C87.0947 18.296 86.4092 18.14 85.8394 17.8264C85.2696 17.5146 84.8988 17.1057 84.7253 16.605V21.9327ZM87.5761 16.106C88.4078 16.106 89.1018 15.8132 89.6581 15.2258C90.2211 14.6524 90.5034 13.9195 90.5034 13.0255C90.5034 12.1315 90.2211 11.4003 89.6581 10.8251C89.1018 10.2377 88.4078 9.94494 87.5761 9.94494C86.7443 9.94494 86.0112 10.2377 85.4158 10.8251C84.8392 11.4124 84.5518 12.1453 84.5518 13.0255C84.5518 13.9056 84.8392 14.6385 85.4158 15.2258C86.0112 15.8132 86.7307 16.106 87.5761 16.106Z" fill="white"/>
<path d="M98.9981 7.75842C99.7976 7.75842 100.481 7.91262 101.048 8.22275C101.614 8.53289 101.983 8.93831 102.157 9.43903V7.98193H104.518V18.0707H102.157V16.605C101.983 17.1074 101.614 17.5146 101.048 17.8264C100.481 18.14 99.7993 18.296 98.9981 18.296C97.6033 18.296 96.4228 17.7935 95.4567 16.7904C94.5092 15.7664 94.0364 14.512 94.0364 13.0272C94.0364 11.5424 94.5092 10.2863 95.4567 9.28309C96.416 8.26607 97.5965 7.75842 98.9981 7.75842ZM99.306 16.1077C100.163 16.1077 100.879 15.8149 101.456 15.2276C102.045 14.6472 102.339 13.9143 102.339 13.0272C102.339 12.1401 102.045 11.4072 101.456 10.8268C100.879 10.2395 100.163 9.94667 99.306 9.94667C98.4487 9.94667 97.7802 10.2395 97.2036 10.8268C96.6525 11.4072 96.3786 12.1401 96.3786 13.0272C96.3786 13.9143 96.6542 14.6472 97.2036 15.2276C97.7785 15.8149 98.4793 16.1077 99.306 16.1077Z" fill="white"/>
<path d="M108.894 18.0725H106.562V7.98193H108.894V9.47715C109.131 8.94352 109.508 8.52596 110.027 8.22623C110.546 7.92649 111.15 7.77576 111.84 7.77576C112.123 7.77576 112.359 7.79482 112.551 7.83466V10.1615C112.218 10.0957 111.892 10.0645 111.572 10.0645C110.752 10.0645 110.102 10.3071 109.619 10.7922C109.136 11.2773 108.894 11.9339 108.894 12.7621V18.0707V18.0725Z" fill="white"/>
<path d="M117.244 18.0726H114.884V10.1633H113.608V7.98375H114.884V4.12183H117.244V7.98375H119.384V10.1633H117.244V18.0726Z" fill="white"/>
<path d="M119.912 13.1052V13.0273C119.912 11.4437 120.398 10.1564 121.371 9.16535C122.349 8.18817 123.594 7.69958 125.105 7.69958C126.615 7.69958 127.724 8.18817 128.627 9.16535C129.543 10.1373 130 11.3415 130 12.783C130 12.9909 129.986 13.2716 129.961 13.6233H122.254C122.293 14.4255 122.582 15.0665 123.123 15.5499C123.664 16.0316 124.37 16.2724 125.239 16.2724C126.263 16.2724 127.156 15.8843 127.916 15.1098L129.326 16.508C128.2 17.7139 126.812 18.3168 125.161 18.3168C123.606 18.3168 122.342 17.8404 121.369 16.8892C120.396 15.938 119.91 14.6767 119.91 13.1052H119.912ZM122.312 11.9427H127.6C127.6 11.3501 127.35 10.8373 126.852 10.4076C126.358 9.96407 125.777 9.7423 125.105 9.7423C124.375 9.7423 123.742 9.95714 123.205 10.3868C122.667 10.8165 122.37 11.3345 122.312 11.9409V11.9427Z" fill="white"/>
<path d="M22.3473 23H4.38C3.20973 23 2.1109 22.5357 1.28253 21.6936C0.45586 20.8499 0 19.7306 0 18.5386V4.46139C0 3.26938 0.45586 2.15013 1.28253 1.30637C2.1109 0.464331 3.20973 0 4.38 0H22.3456C23.5159 0 24.6147 0.464331 25.4431 1.30637C26.2698 2.1484 26.7256 3.26938 26.7256 4.46139V6.07789L33.1213 1.73605C33.572 1.42938 34.0976 1.25266 34.6385 1.22667C35.1812 1.20068 35.7204 1.32369 36.1983 1.58358C36.678 1.8452 37.0777 2.2333 37.3567 2.70802C37.6357 3.18102 37.7819 3.72505 37.7819 4.27601V18.7223C37.7819 19.2732 37.6357 19.8155 37.3567 20.2902C37.0777 20.7667 36.6763 21.1548 36.1983 21.4164C35.7221 21.6763 35.1829 21.8011 34.6402 21.7751C34.0976 21.7473 33.572 21.5724 33.1213 21.2657L26.7256 16.9221V18.5386C26.7256 19.7306 26.2698 20.8499 25.4431 21.6936C24.6164 22.5357 23.5159 23 22.3456 23H22.3473ZM4.38 3.2919C4.07382 3.2919 3.78466 3.41318 3.56863 3.63495C3.35431 3.85326 3.23184 4.15473 3.23184 4.46139V18.5386C3.23184 18.8505 3.35091 19.145 3.56863 19.365C3.78466 19.5851 4.07382 19.7081 4.38 19.7081H22.3456C22.6518 19.7081 22.941 19.5868 23.157 19.365C23.3747 19.145 23.4938 18.8505 23.4938 18.5386V4.46139C23.4938 4.14953 23.3747 3.85499 23.157 3.63495C22.9393 3.41318 22.6518 3.2919 22.3456 3.2919H4.38ZM29.4914 14.843L34.5518 18.2805V4.72128L29.4914 8.15699V14.8413V14.843Z" fill="white"/>
<path d="M13.7813 7.8382L14.6046 9.53613C14.6726 9.67647 14.8036 9.7735 14.955 9.79602L16.7937 10.068C17.1764 10.1252 17.3278 10.6034 17.0523 10.8771L15.7221 12.1991C15.6115 12.3083 15.5622 12.4659 15.5877 12.6184L15.9024 14.4844C15.967 14.8725 15.569 15.167 15.2271 14.9851L13.5823 14.1049C13.4462 14.0322 13.2846 14.0322 13.1485 14.1049L11.5037 14.9851C11.1618 15.1687 10.7621 14.8725 10.8284 14.4844L11.1431 12.6184C11.1686 12.4642 11.1193 12.3083 11.0087 12.1991L9.67856 10.8771C9.4013 10.6034 9.55439 10.1252 9.93711 10.068L11.7759 9.79602C11.9272 9.7735 12.0582 9.67647 12.1263 9.53613L12.9495 7.8382C13.1196 7.48476 13.6146 7.48476 13.7847 7.8382H13.7813Z" fill="white"/>
</g>
<rect x="138.5" y="2.5" width="55" height="19" rx="9.5" stroke="white"/>
<path d="M153.328 7.6H156.52C157.312 7.6 157.944 7.792 158.416 8.176C158.896 8.552 159.136 9.08 159.136 9.76C159.136 10.128 159.032 10.464 158.824 10.768C158.616 11.064 158.368 11.276 158.08 11.404C158.52 11.564 158.872 11.824 159.136 12.184C159.4 12.536 159.532 12.984 159.532 13.528C159.532 14.296 159.272 14.9 158.752 15.34C158.24 15.78 157.544 16 156.664 16H153.328V7.6ZM156.496 14.764C157.608 14.764 158.164 14.332 158.164 13.468C158.164 12.596 157.608 12.16 156.496 12.16H154.732V14.764H156.496ZM156.436 10.948C156.884 10.948 157.22 10.856 157.444 10.672C157.676 10.488 157.792 10.216 157.792 9.856C157.792 9.496 157.676 9.224 157.444 9.04C157.22 8.848 156.88 8.752 156.424 8.752H154.732V10.948H156.436ZM160.301 12.976C160.301 12.416 160.417 11.9 160.649 11.428C160.881 10.956 161.217 10.576 161.657 10.288C162.105 10 162.637 9.856 163.253 9.856C163.877 9.856 164.413 9.992 164.861 10.264C165.309 10.528 165.649 10.884 165.881 11.332C166.113 11.772 166.229 12.244 166.229 12.748C166.229 12.94 166.221 13.116 166.205 13.276H161.585C161.641 13.804 161.825 14.22 162.137 14.524C162.457 14.828 162.861 14.98 163.349 14.98C163.749 14.98 164.081 14.892 164.345 14.716C164.617 14.532 164.793 14.276 164.873 13.948L166.109 14.26C165.949 14.836 165.621 15.288 165.125 15.616C164.637 15.936 164.037 16.096 163.325 16.096C162.701 16.096 162.161 15.952 161.705 15.664C161.249 15.376 160.901 14.996 160.661 14.524C160.421 14.044 160.301 13.528 160.301 12.976ZM164.837 12.292C164.797 11.868 164.637 11.528 164.357 11.272C164.085 11.016 163.717 10.888 163.253 10.888C162.837 10.888 162.489 11.012 162.209 11.26C161.929 11.5 161.741 11.844 161.645 12.292H164.837ZM170.663 15.952C170.375 16.048 170.055 16.096 169.703 16.096C169.103 16.096 168.619 15.928 168.251 15.592C167.891 15.256 167.711 14.756 167.711 14.092V11.068H166.655V9.952H167.711V8.152H169.019V9.952H170.579V11.068H169.019V14.02C169.019 14.316 169.091 14.544 169.235 14.704C169.387 14.856 169.591 14.932 169.847 14.932C170.135 14.932 170.379 14.884 170.579 14.788L170.663 15.952ZM175.165 12.088C175.165 11.72 175.045 11.428 174.805 11.212C174.573 10.996 174.257 10.888 173.857 10.888C173.489 10.888 173.185 10.992 172.945 11.2C172.705 11.4 172.565 11.68 172.525 12.04L171.349 11.824C171.445 11.232 171.725 10.756 172.189 10.396C172.653 10.036 173.209 9.856 173.857 9.856C174.641 9.856 175.269 10.068 175.741 10.492C176.213 10.908 176.449 11.488 176.449 12.232V16H175.165V15.076C174.989 15.38 174.729 15.628 174.385 15.82C174.041 16.004 173.669 16.096 173.269 16.096C172.877 16.096 172.525 16.02 172.213 15.868C171.909 15.716 171.669 15.504 171.493 15.232C171.325 14.96 171.241 14.652 171.241 14.308C171.241 13.716 171.469 13.256 171.925 12.928C172.389 12.6 173.089 12.388 174.025 12.292L175.165 12.172V12.088ZM172.525 14.272C172.525 14.512 172.617 14.708 172.801 14.86C172.985 15.012 173.229 15.088 173.533 15.088C174.037 15.088 174.433 14.932 174.721 14.62C175.009 14.308 175.157 13.9 175.165 13.396V13.144L174.013 13.276C173.525 13.332 173.153 13.448 172.897 13.624C172.649 13.792 172.525 14.008 172.525 14.272Z" fill="white"/>
<defs>
<clipPath id="clip0_1489_7709">
<rect width="130" height="23" fill="white"/>
</clipPath>
</defs>
</svg>
