<svg width="130" height="23" viewBox="0 0 130 23" fill="none" xmlns="http://www.w3.org/2000/svg">
<path d="M54.9719 18.0728H47.0726V4.12207H49.5305V15.8135H54.9719V18.0711V18.0728Z" fill="white"/>
<path d="M57.8143 6.80046C57.4179 6.80046 57.0829 6.66359 56.8107 6.38984C56.5385 6.11609 56.4025 5.77997 56.4025 5.38321C56.4025 4.98645 56.5385 4.6486 56.8107 4.37139C57.0829 4.09417 57.4162 3.95557 57.8143 3.95557C58.2123 3.95557 58.527 4.09417 58.8025 4.37139C59.0781 4.6486 59.2159 4.98645 59.2159 5.38321C59.2159 5.77997 59.0781 6.11609 58.8025 6.38984C58.527 6.66359 58.197 6.80046 57.8143 6.80046ZM58.9947 18.0726H56.644V7.98208H58.9947V18.0709V18.0726Z" fill="white"/>
<path d="M66.4042 18.0727H64.4175L60.165 7.98389H62.6025L65.4142 14.8276L68.2072 7.98389H70.6447L66.4025 18.0727H66.4042Z" fill="white"/>
<path d="M70.7128 13.1054V13.0274C70.7128 11.4438 71.1992 10.1565 72.1722 9.16547C73.1502 8.1883 74.3954 7.69971 75.9058 7.69971C77.4163 7.69971 78.5253 8.1883 79.4285 9.16547C80.3437 10.1374 80.8012 11.3416 80.8012 12.7831C80.8012 12.991 80.7876 13.2717 80.7621 13.6234H73.055C73.0941 14.4256 73.3833 15.0666 73.9242 15.55C74.4651 16.0317 75.171 16.2725 76.0402 16.2725C77.0642 16.2725 77.9572 15.8844 78.7175 15.11L80.1276 16.5081C79.0016 17.714 77.6136 18.317 75.962 18.317C74.4073 18.317 73.1434 17.8405 72.1705 16.8893C71.1975 15.9381 70.7111 14.6768 70.7111 13.1054H70.7128ZM73.1128 11.9428H78.4011C78.4011 11.3503 78.1511 10.8374 77.6527 10.4077C77.1594 9.96419 76.5777 9.74242 75.9058 9.74242C75.1761 9.74242 74.5433 9.95726 74.0058 10.3869C73.4683 10.8166 73.1707 11.3347 73.1128 11.9411V11.9428Z" fill="white"/>
<path d="M84.7253 21.933H82.3745V7.98229H84.7253V9.43939C84.8988 8.93694 85.2696 8.53152 85.8394 8.22312C86.4092 7.91299 87.093 7.75879 87.8942 7.75879C89.3009 7.75879 90.4762 8.26644 91.4169 9.28346C92.3694 10.2745 92.8474 11.522 92.8474 13.0276C92.8474 14.5332 92.3711 15.7806 91.4169 16.7907C90.4694 17.7939 89.2958 18.2963 87.8942 18.2963C87.0947 18.2963 86.4092 18.1404 85.8394 17.8268C85.2696 17.5149 84.8988 17.1061 84.7253 16.6053V21.933ZM87.5761 16.1064C88.4078 16.1064 89.1018 15.8136 89.6581 15.2262C90.2211 14.6527 90.5034 13.9198 90.5034 13.0258C90.5034 12.1318 90.2211 11.4007 89.6581 10.8255C89.1018 10.2381 88.4078 9.94531 87.5761 9.94531C86.7443 9.94531 86.0112 10.2381 85.4158 10.8255C84.8392 11.4128 84.5518 12.1457 84.5518 13.0258C84.5518 13.906 84.8392 14.6389 85.4158 15.2262C86.0112 15.8136 86.7307 16.1064 87.5761 16.1064Z" fill="white"/>
<path d="M98.9981 7.75879C99.7976 7.75879 100.481 7.91299 101.048 8.22312C101.614 8.53325 101.983 8.93868 102.157 9.43939V7.98229H104.518V18.0711H102.157V16.6053C101.983 17.1078 101.614 17.5149 101.048 17.8268C100.481 18.1404 99.7993 18.2963 98.9981 18.2963C97.6033 18.2963 96.4228 17.7939 95.4567 16.7907C94.5092 15.7668 94.0364 14.5124 94.0364 13.0276C94.0364 11.5427 94.5092 10.2866 95.4567 9.28346C96.416 8.26644 97.5965 7.75879 98.9981 7.75879ZM99.306 16.1081C100.163 16.1081 100.879 15.8153 101.456 15.2279C102.045 14.6475 102.339 13.9146 102.339 13.0276C102.339 12.1405 102.045 11.4076 101.456 10.8272C100.879 10.2398 100.163 9.94704 99.306 9.94704C98.4487 9.94704 97.7802 10.2398 97.2036 10.8272C96.6525 11.4076 96.3786 12.1405 96.3786 13.0276C96.3786 13.9146 96.6542 14.6475 97.2036 15.2279C97.7785 15.8153 98.4793 16.1081 99.306 16.1081Z" fill="white"/>
<path d="M108.894 18.0726H106.562V7.98206H108.894V9.47727C109.131 8.94364 109.508 8.52609 110.027 8.22635C110.546 7.92661 111.15 7.77588 111.84 7.77588C112.123 7.77588 112.359 7.79494 112.551 7.83479V10.1616C112.218 10.0958 111.892 10.0646 111.572 10.0646C110.752 10.0646 110.102 10.3072 109.619 10.7923C109.136 11.2774 108.894 11.9341 108.894 12.7622V18.0709V18.0726Z" fill="white"/>
<path d="M117.244 18.0728H114.884V10.1636H113.608V7.98399H114.884V4.12207H117.244V7.98399H119.384V10.1636H117.244V18.0728Z" fill="white"/>
<path d="M119.912 13.1054V13.0274C119.912 11.4438 120.398 10.1565 121.371 9.16547C122.349 8.1883 123.594 7.69971 125.105 7.69971C126.615 7.69971 127.724 8.1883 128.627 9.16547C129.543 10.1374 130 11.3416 130 12.7831C130 12.991 129.986 13.2717 129.961 13.6234H122.254C122.293 14.4256 122.582 15.0666 123.123 15.55C123.664 16.0317 124.37 16.2725 125.239 16.2725C126.263 16.2725 127.156 15.8844 127.916 15.11L129.326 16.5081C128.2 17.714 126.812 18.317 125.161 18.317C123.606 18.317 122.342 17.8405 121.369 16.8893C120.396 15.9381 119.91 14.6768 119.91 13.1054H119.912ZM122.312 11.9428H127.6C127.6 11.3503 127.35 10.8374 126.852 10.4077C126.358 9.96419 125.777 9.74242 125.105 9.74242C124.375 9.74242 123.742 9.95726 123.205 10.3869C122.667 10.8166 122.37 11.3347 122.312 11.9411V11.9428Z" fill="white"/>
<path d="M22.3473 23H4.38C3.20973 23 2.1109 22.5357 1.28253 21.6936C0.45586 20.8499 0 19.7306 0 18.5386V4.46139C0 3.26938 0.45586 2.15013 1.28253 1.30637C2.1109 0.464331 3.20973 0 4.38 0H22.3456C23.5159 0 24.6147 0.464331 25.4431 1.30637C26.2698 2.1484 26.7256 3.26938 26.7256 4.46139V6.07789L33.1213 1.73605C33.572 1.42938 34.0976 1.25266 34.6385 1.22667C35.1812 1.20068 35.7204 1.32369 36.1983 1.58358C36.678 1.8452 37.0777 2.2333 37.3567 2.70802C37.6357 3.18102 37.7819 3.72505 37.7819 4.27601V18.7223C37.7819 19.2732 37.6357 19.8155 37.3567 20.2902C37.0777 20.7667 36.6763 21.1548 36.1983 21.4164C35.7221 21.6763 35.1829 21.8011 34.6402 21.7751C34.0976 21.7473 33.572 21.5724 33.1213 21.2657L26.7256 16.9221V18.5386C26.7256 19.7306 26.2698 20.8499 25.4431 21.6936C24.6164 22.5357 23.5159 23 22.3456 23H22.3473ZM4.38 3.2919C4.07382 3.2919 3.78466 3.41318 3.56863 3.63495C3.35431 3.85326 3.23184 4.15473 3.23184 4.46139V18.5386C3.23184 18.8505 3.35091 19.145 3.56863 19.365C3.78466 19.5851 4.07382 19.7081 4.38 19.7081H22.3456C22.6518 19.7081 22.941 19.5868 23.157 19.365C23.3747 19.145 23.4938 18.8505 23.4938 18.5386V4.46139C23.4938 4.14953 23.3747 3.85499 23.157 3.63495C22.9393 3.41318 22.6518 3.2919 22.3456 3.2919H4.38ZM29.4914 14.843L34.5518 18.2805V4.72128L29.4914 8.15699V14.8413V14.843Z" fill="white"/>
<path d="M13.7813 7.83833L14.6046 9.53626C14.6726 9.67659 14.8036 9.77362 14.955 9.79614L16.7937 10.0682C17.1764 10.1253 17.3278 10.6035 17.0523 10.8773L15.7221 12.1992C15.6115 12.3084 15.5622 12.466 15.5877 12.6185L15.9024 14.4845C15.967 14.8726 15.569 15.1671 15.2271 14.9852L13.5823 14.1051C13.4462 14.0323 13.2846 14.0323 13.1485 14.1051L11.5037 14.9852C11.1618 15.1689 10.7621 14.8726 10.8284 14.4845L11.1431 12.6185C11.1686 12.4643 11.1193 12.3084 11.0087 12.1992L9.67856 10.8773C9.4013 10.6035 9.55439 10.1253 9.93711 10.0682L11.7759 9.79614C11.9272 9.77362 12.0582 9.67659 12.1263 9.53626L12.9495 7.83833C13.1196 7.48488 13.6146 7.48488 13.7847 7.83833H13.7813Z" fill="white"/>
</svg>
