<svg width="130" height="23" viewBox="0 0 130 23" fill="none" xmlns="http://www.w3.org/2000/svg">
<path d="M54.9721 18.0725H47.0728V4.1218H49.5307V15.8132H54.9721V18.0708V18.0725Z" fill="white"/>
<path d="M57.8144 6.80037C57.4181 6.80037 57.083 6.6635 56.8108 6.38975C56.5387 6.116 56.4026 5.77988 56.4026 5.38312C56.4026 4.98636 56.5387 4.64851 56.8108 4.37129C57.083 4.09408 57.4164 3.95547 57.8144 3.95547C58.2124 3.95547 58.5271 4.09408 58.8027 4.37129C59.0782 4.64851 59.216 4.98636 59.216 5.38312C59.216 5.77988 59.0782 6.116 58.8027 6.38975C58.5271 6.6635 58.1971 6.80037 57.8144 6.80037ZM58.9949 18.0725H56.6441V7.98199H58.9949V18.0708V18.0725Z" fill="white"/>
<path d="M66.4042 18.0725H64.4175L60.165 7.98373H62.6025L65.4142 14.8274L68.2072 7.98373H70.6447L66.4025 18.0725H66.4042Z" fill="white"/>
<path d="M70.7129 13.1052V13.0273C70.7129 11.4437 71.1994 10.1564 72.1723 9.16535C73.1504 8.18817 74.3955 7.69958 75.9059 7.69958C77.4164 7.69958 78.5254 8.18817 79.4287 9.16535C80.3438 10.1373 80.8013 11.3415 80.8013 12.783C80.8013 12.9909 80.7877 13.2716 80.7622 13.6233H73.0551C73.0942 14.4255 73.3834 15.0665 73.9243 15.5499C74.4652 16.0316 75.1711 16.2724 76.0403 16.2724C77.0643 16.2724 77.9573 15.8843 78.7176 15.1098L80.1278 16.508C79.0017 17.7139 77.6137 18.3168 75.9621 18.3168C74.4074 18.3168 73.1436 17.8404 72.1706 16.8892C71.1977 15.938 70.7112 14.6767 70.7112 13.1052H70.7129ZM73.1129 11.9427H78.4013C78.4013 11.3501 78.1512 10.8373 77.6528 10.4076C77.1596 9.96407 76.5778 9.7423 75.9059 9.7423C75.1762 9.7423 74.5435 9.95714 74.006 10.3868C73.4685 10.8165 73.1708 11.3345 73.1129 11.9409V11.9427Z" fill="white"/>
<path d="M84.7255 21.9327H82.3748V7.98199H84.7255V9.43909C84.899 8.93664 85.2698 8.53121 85.8396 8.22282C86.4095 7.91268 87.0932 7.75848 87.8944 7.75848C89.3011 7.75848 90.4765 8.26613 91.4171 9.28315C92.3697 10.2742 92.8476 11.5216 92.8476 13.0273C92.8476 14.5329 92.3714 15.7803 91.4171 16.7904C90.4697 17.7936 89.296 18.296 87.8944 18.296C87.0949 18.296 86.4095 18.1401 85.8396 17.8265C85.2698 17.5146 84.899 17.1058 84.7255 16.605V21.9327ZM87.5763 16.1061C88.4081 16.1061 89.1021 15.8132 89.6583 15.2259C90.2213 14.6524 90.5037 13.9195 90.5037 13.0255C90.5037 12.1315 90.2213 11.4004 89.6583 10.8252C89.1021 10.2378 88.4081 9.945 87.5763 9.945C86.7445 9.945 86.0114 10.2378 85.4161 10.8252C84.8395 11.4125 84.552 12.1454 84.552 13.0255C84.552 13.9057 84.8395 14.6386 85.4161 15.2259C86.0114 15.8132 86.7309 16.1061 87.5763 16.1061Z" fill="white"/>
<path d="M98.9983 7.75848C99.7978 7.75848 100.482 7.91268 101.048 8.22282C101.614 8.53295 101.984 8.93837 102.157 9.43909V7.98199H104.518V18.0708H102.157V16.605C101.984 17.1075 101.614 17.5146 101.048 17.8265C100.482 18.1401 99.7995 18.296 98.9983 18.296C97.6036 18.296 96.4231 17.7936 95.4569 16.7904C94.5095 15.7665 94.0366 14.5121 94.0366 13.0273C94.0366 11.5424 94.5095 10.2863 95.4569 9.28315C96.4163 8.26613 97.5967 7.75848 98.9983 7.75848ZM99.3062 16.1078C100.164 16.1078 100.88 15.815 101.456 15.2276C102.045 14.6472 102.339 13.9143 102.339 13.0273C102.339 12.1402 102.045 11.4073 101.456 10.8269C100.88 10.2395 100.164 9.94673 99.3062 9.94673C98.4489 9.94673 97.7805 10.2395 97.2038 10.8269C96.6527 11.4073 96.3788 12.1402 96.3788 13.0273C96.3788 13.9143 96.6544 14.6472 97.2038 15.2276C97.7788 15.815 98.4795 16.1078 99.3062 16.1078Z" fill="white"/>
<path d="M108.895 18.0725H106.562V7.98199H108.895V9.47721C109.131 8.94358 109.509 8.52602 110.027 8.22629C110.546 7.92655 111.15 7.77582 111.841 7.77582C112.123 7.77582 112.359 7.79488 112.552 7.83473V10.1616C112.218 10.0957 111.892 10.0646 111.572 10.0646C110.752 10.0646 110.102 10.3071 109.619 10.7922C109.136 11.2774 108.895 11.934 108.895 12.7622V18.0708V18.0725Z" fill="white"/>
<path d="M117.245 18.0725H114.884V10.1633H113.608V7.98372H114.884V4.1218H117.245V7.98372H119.384V10.1633H117.245V18.0725Z" fill="white"/>
<path d="M119.912 13.1052V13.0273C119.912 11.4437 120.398 10.1564 121.371 9.16535C122.349 8.18817 123.594 7.69958 125.105 7.69958C126.615 7.69958 127.724 8.18817 128.627 9.16535C129.543 10.1373 130 11.3415 130 12.783C130 12.9909 129.986 13.2716 129.961 13.6233H122.254C122.293 14.4255 122.582 15.0665 123.123 15.5499C123.664 16.0316 124.37 16.2724 125.239 16.2724C126.263 16.2724 127.156 15.8843 127.916 15.1098L129.326 16.508C128.2 17.7139 126.812 18.3168 125.161 18.3168C123.606 18.3168 122.342 17.8404 121.369 16.8892C120.396 15.938 119.91 14.6767 119.91 13.1052H119.912ZM122.312 11.9427H127.6C127.6 11.3501 127.35 10.8373 126.852 10.4076C126.358 9.96407 125.777 9.7423 125.105 9.7423C124.375 9.7423 123.742 9.95714 123.205 10.3868C122.667 10.8165 122.37 11.3345 122.312 11.9409V11.9427Z" fill="white"/>
<path d="M22.3473 23H4.38C3.20973 23 2.1109 22.5357 1.28253 21.6936C0.45586 20.8499 0 19.7306 0 18.5386V4.46139C0 3.26938 0.45586 2.15013 1.28253 1.30637C2.1109 0.464331 3.20973 0 4.38 0H22.3456C23.5159 0 24.6147 0.464331 25.4431 1.30637C26.2698 2.1484 26.7256 3.26938 26.7256 4.46139V6.07789L33.1213 1.73605C33.572 1.42938 34.0976 1.25266 34.6385 1.22667C35.1812 1.20068 35.7204 1.32369 36.1983 1.58358C36.678 1.8452 37.0777 2.2333 37.3567 2.70802C37.6357 3.18102 37.7819 3.72505 37.7819 4.27601V18.7223C37.7819 19.2732 37.6357 19.8155 37.3567 20.2902C37.0777 20.7667 36.6763 21.1548 36.1983 21.4164C35.7221 21.6763 35.1829 21.8011 34.6402 21.7751C34.0976 21.7473 33.572 21.5724 33.1213 21.2657L26.7256 16.9221V18.5386C26.7256 19.7306 26.2698 20.8499 25.4431 21.6936C24.6164 22.5357 23.5159 23 22.3456 23H22.3473ZM4.38 3.2919C4.07382 3.2919 3.78466 3.41318 3.56863 3.63495C3.35431 3.85326 3.23184 4.15473 3.23184 4.46139V18.5386C3.23184 18.8505 3.35091 19.145 3.56863 19.365C3.78466 19.5851 4.07382 19.7081 4.38 19.7081H22.3456C22.6518 19.7081 22.941 19.5868 23.157 19.365C23.3747 19.145 23.4938 18.8505 23.4938 18.5386V4.46139C23.4938 4.14953 23.3747 3.85499 23.157 3.63495C22.9393 3.41318 22.6518 3.2919 22.3456 3.2919H4.38ZM29.4914 14.843L34.5518 18.2805V4.72128L29.4914 8.15699V14.8413V14.843Z" fill="#FA4354"/>
<path d="M13.7812 7.8382L14.6044 9.53613C14.6725 9.67647 14.8035 9.7735 14.9548 9.79602L16.7936 10.068C17.1763 10.1252 17.3277 10.6034 17.0521 10.8771L15.722 12.1991C15.6114 12.3083 15.5621 12.4659 15.5876 12.6184L15.9023 14.4844C15.9669 14.8725 15.5689 15.167 15.227 14.9851L13.5822 14.1049C13.4461 14.0322 13.2845 14.0322 13.1484 14.1049L11.5036 14.9851C11.1617 15.1687 10.762 14.8725 10.8283 14.4844L11.143 12.6184C11.1685 12.4642 11.1192 12.3083 11.0086 12.1991L9.67844 10.8771C9.40118 10.6034 9.55427 10.1252 9.93699 10.068L11.7757 9.79602C11.9271 9.7735 12.0581 9.67647 12.1261 9.53613L12.9494 7.8382C13.1195 7.48476 13.6145 7.48476 13.7846 7.8382H13.7812Z" fill="white"/>
</svg>
