<svg width="98" height="88" viewBox="0 0 98 88" fill="none" xmlns="http://www.w3.org/2000/svg">
<path fill-rule="evenodd" clip-rule="evenodd" d="M19.6078 49.7487C19.6078 68.7559 35.0163 84.1643 54.0235 84.1643C73.0308 84.1643 88.4392 68.7559 88.4392 49.7487C88.4392 30.7414 73.0308 15.333 54.0235 15.333C35.0163 15.333 19.6078 30.7414 19.6078 49.7487Z" fill="#C6EBFA"/>
<path fill-rule="evenodd" clip-rule="evenodd" d="M23.451 60.2578C24.7128 60.9182 28.6189 63.032 30.3893 66.983C30.6852 67.6433 31.3713 69.217 30.7509 69.8868C29.9894 70.7088 27.667 69.7511 26.7703 69.3105C23.8876 67.8936 15.5352 62.1096 4.60059 53.7871C8.84856 54.6983 16.5231 56.6313 23.451 60.2578Z" fill="#081F2D"/>
<path fill-rule="evenodd" clip-rule="evenodd" d="M23.451 60.2578C24.7128 60.9182 28.6189 63.032 30.3893 66.983C30.6852 67.6433 31.3713 69.217 30.7509 69.8868C29.9894 70.7088 27.667 69.7511 26.7703 69.3105C23.8876 67.8936 15.5352 62.1096 4.60059 53.7871C8.84856 54.6983 16.5231 56.6313 23.451 60.2578Z" stroke="#081F2D" stroke-linecap="round" stroke-linejoin="round"/>
<mask id="mask0_917_2186" style="mask-type:luminance" maskUnits="userSpaceOnUse" x="4" y="29" width="35" height="40">
<path fill-rule="evenodd" clip-rule="evenodd" d="M22.5932 31.8926C19.6149 33.0472 17.018 34.0723 13.9137 36.2377C11.4823 37.9354 9.27727 39.9498 8.08671 41.3921C1.92866 48.863 5.67315 61.884 6.18394 63.589L22.8845 68.5421C23.219 67.2148 23.6617 65.7831 24.2514 64.2868C25.4636 61.3734 27.2441 58.0533 29.8913 54.7622C30.082 55.4024 30.4094 56.0031 30.9417 56.4706C31.2078 56.7045 31.7259 57.1648 32.3554 57.1179C33.6431 57.021 34.8122 54.8594 35.2077 51.5534C36.1106 50.9635 36.348 49.7586 36.5387 48.7228C36.7401 47.6294 36.9523 45.4281 35.8228 42.5863C37.884 39.8311 39.3839 37.2916 38.47 35.317C38.3696 35.1011 37.8913 34.1372 36.9308 33.8349C36.409 33.6694 35.8623 33.7414 35.2834 34.0005C35.2724 33.5507 35.1645 33.0975 34.8408 32.8063C34.0748 32.1119 32.3876 32.6119 30.3914 33.6049C30.6143 33.3205 30.8086 32.9969 30.9634 32.6373C31.1143 32.2847 31.6935 30.9321 31.1216 30.2091C30.8587 29.8787 30.4011 29.7383 29.8 29.7383C28.1378 29.7381 25.3774 30.8096 22.5932 31.8926Z" fill="white"/>
</mask>
<g mask="url(#mask0_917_2186)">
<path fill-rule="evenodd" clip-rule="evenodd" d="M22.5932 31.8926C19.6149 33.0472 17.018 34.0723 13.9137 36.2377C11.4823 37.9354 9.27727 39.9498 8.08671 41.3921C1.92866 48.863 5.67315 61.884 6.18394 63.589L22.8845 68.5421C23.219 67.2148 23.6617 65.7831 24.2514 64.2868C25.4636 61.3734 27.2441 58.0533 29.8913 54.7622C30.082 55.4024 30.4094 56.0031 30.9417 56.4706C31.2078 56.7045 31.7259 57.1648 32.3554 57.1179C33.6431 57.021 34.8122 54.8594 35.2077 51.5534C36.1106 50.9635 36.348 49.7586 36.5387 48.7228C36.7401 47.6294 36.9523 45.4281 35.8228 42.5863C37.884 39.8311 39.3839 37.2916 38.47 35.317C38.3696 35.1011 37.8913 34.1372 36.9308 33.8349C36.409 33.6694 35.8623 33.7414 35.2834 34.0005C35.2724 33.5507 35.1645 33.0975 34.8408 32.8063C34.0748 32.1119 32.3876 32.6119 30.3914 33.6049C30.6143 33.3205 30.8086 32.9969 30.9634 32.6373C31.1143 32.2847 31.6935 30.9321 31.1216 30.2091C30.8587 29.8787 30.4011 29.7383 29.8 29.7383C28.1378 29.7381 25.3774 30.8096 22.5932 31.8926Z" fill="url(#paint0_linear_917_2186)"/>
</g>
<path d="M35.7068 51.0944C35.5199 51.3338 35.2883 51.5359 34.9972 51.6811C33.9912 52.1828 32.9262 51.6817 32.8372 51.6381C31.7742 51.1176 31.1496 49.8495 31.3241 48.4805" stroke="#081F2D"/>
<path d="M30.1209 55.337C29.1967 53.2928 30.0418 50.4679 30.1034 50.2705" stroke="#081F2D"/>
<path d="M18.7803 41.0703C20.207 39.9605 22.227 38.4764 24.7605 36.8923C26.9207 35.5417 29.3286 34.0363 31.2952 33.1807" stroke="#081F2D"/>
<path fill-rule="evenodd" clip-rule="evenodd" d="M74.3961 50.583C73.1343 51.2434 69.2282 53.3572 67.4578 57.3082C67.1619 57.9685 66.4758 59.5422 67.0962 60.212C67.8577 61.034 70.1801 60.0763 71.0768 59.6357C73.9595 58.2188 82.3119 52.4348 93.2465 44.1123C88.9985 45.0235 81.324 46.9565 74.3961 50.583Z" fill="#081F2D"/>
<path fill-rule="evenodd" clip-rule="evenodd" d="M74.3961 50.583C73.1343 51.2434 69.2282 53.3572 67.4578 57.3082C67.1619 57.9685 66.4758 59.5422 67.0962 60.212C67.8577 61.034 70.1801 60.0763 71.0768 59.6357C73.9595 58.2188 82.3119 52.4348 93.2465 44.1123C88.9985 45.0235 81.324 46.9565 74.3961 50.583Z" stroke="#081F2D" stroke-linecap="round" stroke-linejoin="round"/>
<mask id="mask1_917_2186" style="mask-type:luminance" maskUnits="userSpaceOnUse" x="59" y="20" width="35" height="39">
<path fill-rule="evenodd" clip-rule="evenodd" d="M66.7259 20.5363C66.1541 21.2594 66.7332 22.6119 66.8842 22.9644C67.0387 23.3241 67.2331 23.6476 67.4562 23.9318C65.4597 22.9391 63.7728 22.439 63.0066 23.1334C62.6828 23.4247 62.5749 23.8779 62.5642 24.3276C61.985 24.0686 61.4383 23.9965 60.9168 24.1621C59.9565 24.4641 59.4781 25.4283 59.3773 25.6441C58.4637 27.6187 59.9636 30.1582 62.0248 32.9134C60.8951 35.7552 61.1075 37.9564 61.3089 39.05C61.4994 40.0859 61.7369 41.2909 62.6398 41.8806C63.0354 45.1863 64.2044 47.3481 65.4922 47.4453C66.1216 47.4919 66.6395 47.0315 66.9057 46.7978C67.4381 46.33 67.7654 45.7293 67.956 45.0891C70.6035 48.3804 72.3839 51.7004 73.5962 54.614C74.1859 56.1102 74.6283 57.5417 74.963 58.869L91.6636 53.9161C92.1744 52.2111 95.9189 39.1901 89.761 31.7192C88.5703 30.2769 86.3653 28.2628 83.9337 26.5649C80.8296 24.3994 78.2326 23.3744 75.2541 22.2195C72.4702 21.1367 69.7095 20.0654 68.0475 20.0654C67.4463 20.0654 66.9886 20.2058 66.7259 20.5363Z" fill="white"/>
</mask>
<g mask="url(#mask1_917_2186)">
<path fill-rule="evenodd" clip-rule="evenodd" d="M66.7259 20.5363C66.1541 21.2594 66.7332 22.6119 66.8842 22.9644C67.0387 23.3241 67.2331 23.6476 67.4562 23.9318C65.4597 22.9391 63.7728 22.439 63.0066 23.1334C62.6828 23.4247 62.5749 23.8779 62.5642 24.3276C61.985 24.0686 61.4383 23.9965 60.9168 24.1621C59.9565 24.4641 59.4781 25.4283 59.3773 25.6441C58.4637 27.6187 59.9636 30.1582 62.0248 32.9134C60.8951 35.7552 61.1075 37.9564 61.3089 39.05C61.4994 40.0859 61.7369 41.2909 62.6398 41.8806C63.0354 45.1863 64.2044 47.3481 65.4922 47.4453C66.1216 47.4919 66.6395 47.0315 66.9057 46.7978C67.4381 46.33 67.7654 45.7293 67.956 45.0891C70.6035 48.3804 72.3839 51.7004 73.5962 54.614C74.1859 56.1102 74.6283 57.5417 74.963 58.869L91.6636 53.9161C92.1744 52.2111 95.9189 39.1901 89.761 31.7192C88.5703 30.2769 86.3653 28.2628 83.9337 26.5649C80.8296 24.3994 78.2326 23.3744 75.2541 22.2195C72.4702 21.1367 69.7095 20.0654 68.0475 20.0654C67.4463 20.0654 66.9886 20.2058 66.7259 20.5363Z" fill="url(#paint1_linear_917_2186)"/>
</g>
<path d="M62.1405 41.4196C62.3273 41.659 62.559 41.8611 62.8501 42.0063C63.856 42.508 64.921 42.0069 65.0101 41.9633C66.0732 41.4428 66.6976 40.1749 66.5232 38.8057" stroke="#081F2D" stroke-width="0.5"/>
<path d="M67.7264 45.6622C68.6506 43.618 67.8056 40.7931 67.7439 40.5957" stroke="#081F2D" stroke-width="0.5"/>
<path d="M79.0671 31.3974C77.6405 30.2876 75.6204 28.8035 73.087 27.2194C70.9268 25.8688 68.5189 24.3635 66.5522 23.5078" stroke="#081F2D" stroke-width="0.5"/>
<path fill-rule="evenodd" clip-rule="evenodd" d="M65.0806 8.62109C58.5633 14.9759 52.0458 21.3307 45.5285 27.6855C36.9236 25.1452 28.3186 22.6049 19.7137 20.0647L65.0806 8.62109Z" fill="white"/>
<path fill-rule="evenodd" clip-rule="evenodd" d="M65.0806 8.62104C56.4758 6.08069 47.8707 3.54034 39.2658 1C32.7483 7.35482 26.231 13.7096 19.7137 20.0645L65.0806 8.62104Z" fill="white"/>
<path fill-rule="evenodd" clip-rule="evenodd" d="M65.0806 8.62104C56.4758 6.08069 47.8707 3.54034 39.2658 1C32.7483 7.35482 26.231 13.7096 19.7137 20.0645L65.0806 8.62104Z" stroke="#081F2D" stroke-width="0.5" stroke-linecap="round" stroke-linejoin="round"/>
<path fill-rule="evenodd" clip-rule="evenodd" d="M57.3702 3.52148L67.7841 22.662L35.1237 41.5634L24.1974 22.0506L57.3702 3.52148Z" fill="#CCD3D3"/>
<path fill-rule="evenodd" clip-rule="evenodd" d="M30.0911 45.7877L67.8812 35.6409C69.8138 35.122 70.9811 33.1579 70.5133 31.2126L65.0808 8.62109L45.5285 27.6855L19.7137 20.0645L25.5551 43.1286C26.0608 45.1251 28.1021 46.3218 30.0911 45.7877Z" fill="#63768D"/>
<path d="M69.4524 34.7652C60.8475 32.2249 54.1334 30.2249 45.5285 27.6846C39.011 34.0394 33.8395 39.0821 27.322 45.4372" stroke="#081F2D" stroke-width="0.5" stroke-linecap="round" stroke-linejoin="round"/>
<path d="M84.7664 33.8975C83.2334 33.9664 80.6028 34.3226 78.044 36.0335C77.2981 36.5323 76.678 37.066 76.1676 37.578" stroke="#081F2D" stroke-width="0.5"/>
<path d="M80.9156 29.7383C80.377 30.0706 78.9189 31.069 78.1377 33.0081C77.5772 34.3991 77.6208 35.6397 77.6896 36.2809" stroke="#081F2D" stroke-width="0.5"/>
<mask id="mask2_917_2186" style="mask-type:luminance" maskUnits="userSpaceOnUse" x="59" y="24" width="19" height="31">
<path fill-rule="evenodd" clip-rule="evenodd" d="M60.9184 24.1629C59.9552 24.4649 59.4777 25.4291 59.3783 25.6437C57.933 28.7666 62.5258 33.3071 65.8291 37.8661C68.3061 41.285 71.4622 46.6493 73.5984 54.6164L77.8249 39.111C74.0429 35.6667 71.1623 32.7018 69.2241 30.6232C65.8191 26.9714 63.4758 24.0746 61.4996 24.0742C61.3022 24.0742 61.1091 24.103 60.9184 24.1629Z" fill="white"/>
</mask>
<g mask="url(#mask2_917_2186)">
<path fill-rule="evenodd" clip-rule="evenodd" d="M60.9184 24.1629C59.9552 24.4649 59.4777 25.4291 59.3783 25.6437C57.933 28.7666 62.5258 33.3071 65.8291 37.8661C68.3061 41.285 71.4622 46.6493 73.5984 54.6164L77.8249 39.111C74.0429 35.6667 71.1623 32.7018 69.2241 30.6232C65.8191 26.9714 63.4758 24.0746 61.4996 24.0742C61.3022 24.0742 61.1091 24.103 60.9184 24.1629Z" fill="url(#paint2_linear_917_2186)"/>
</g>
<path d="M61.5909 32.3232C62.8793 34.1019 64.4644 35.9825 65.8292 37.8662C68.3062 41.2851 71.4622 46.6496 73.5985 54.6165" stroke="#081F2D" stroke-width="0.5"/>
<path d="M77.8251 39.1113C74.0431 35.6672 71.1626 32.7023 69.2243 30.6235C66.1052 27.2784 63.8773 24.5668 62.0059 24.1348" stroke="#081F2D" stroke-width="0.5"/>
<path fill-rule="evenodd" clip-rule="evenodd" d="M97.8475 64.9533L73.2118 78.324C71.3253 72.111 69.7422 67.878 68.7537 65.0618C68.1555 63.3558 67.5526 61.6638 66.9448 59.9858C66.9509 59.9971 66.9698 60.0312 66.9919 60.0657C67.0073 60.0959 67.0266 60.1229 67.046 60.1499C67.0619 60.1728 67.0815 60.1963 67.0982 60.2122C67.8569 61.0331 70.1791 60.0773 71.0772 59.6361C73.9595 58.2199 82.3116 52.437 93.2471 44.1143C94.7805 51.0618 96.3141 58.0057 97.8475 64.9533Z" fill="#00A699"/>
<path d="M68.5878 64.5886V64.5886C71.1516 64.8444 73.7265 64.222 75.8905 62.8233L94.6943 50.6699" stroke="#081F2D" stroke-width="0.5"/>
<path d="M67.4582 57.3092C67.1622 57.9697 66.476 59.5432 67.0965 60.213C67.8578 61.035 70.1803 60.0773 71.0769 59.6367C73.9597 58.2198 82.3122 52.436 93.2466 44.1133" stroke="#081F2D" stroke-width="0.5" stroke-linecap="round" stroke-linejoin="round"/>
<path d="M13.0811 43.5742C14.6141 43.6432 17.2447 43.9994 19.8035 45.7103C20.5494 46.2091 21.1695 46.7428 21.6799 47.2548" stroke="#081F2D" stroke-width="0.5"/>
<path d="M16.9319 39.4141C17.4705 39.7463 18.9286 40.7448 19.7098 42.6839C20.2703 44.0748 20.2266 45.3155 20.1579 45.9567" stroke="#081F2D" stroke-width="0.5"/>
<mask id="mask3_917_2186" style="mask-type:luminance" maskUnits="userSpaceOnUse" x="20" y="33" width="19" height="32">
<path fill-rule="evenodd" clip-rule="evenodd" d="M28.6235 40.298C26.6852 42.3766 23.8045 45.3415 20.0225 48.7856L24.2491 64.2912C26.3854 56.3241 29.5414 50.9598 32.0185 47.5407C35.3217 42.9819 39.9146 38.4414 38.4692 35.3185C38.3698 35.1039 37.8921 34.1399 36.9294 33.8377C36.7387 33.7778 36.5454 33.749 36.348 33.749C34.3718 33.7494 32.0284 36.6462 28.6235 40.298Z" fill="white"/>
</mask>
<g mask="url(#mask3_917_2186)">
<path fill-rule="evenodd" clip-rule="evenodd" d="M28.6235 40.298C26.6852 42.3766 23.8045 45.3415 20.0225 48.7856L24.2491 64.2912C26.3854 56.3241 29.5414 50.9598 32.0185 47.5407C35.3217 42.9819 39.9146 38.4414 38.4692 35.3185C38.3698 35.1039 37.8921 34.1399 36.9294 33.8377C36.7387 33.7778 36.5454 33.749 36.348 33.749C34.3718 33.7494 32.0284 36.6462 28.6235 40.298Z" fill="url(#paint3_linear_917_2186)"/>
</g>
<path d="M36.2566 41.998C34.9683 43.7767 33.3832 45.6573 32.0184 47.541C29.5414 50.9599 26.3853 56.3244 24.2491 64.2913" stroke="#081F2D" stroke-width="0.5"/>
<path d="M20.0223 48.7861C23.8043 45.342 26.6848 42.3771 28.6231 40.2983C31.7422 36.9532 33.9701 34.2417 35.8415 33.8096" stroke="#081F2D" stroke-width="0.5"/>
<mask id="mask4_917_2186" style="mask-type:luminance" maskUnits="userSpaceOnUse" x="0" y="53" width="31" height="35">
<path fill-rule="evenodd" clip-rule="evenodd" d="M0 53.79H30.9026V87.9997H0V53.79Z" fill="white"/>
</mask>
<g mask="url(#mask4_917_2186)">
<path fill-rule="evenodd" clip-rule="evenodd" d="M0 74.6291L24.6356 87.9998C26.5222 81.7868 28.1053 77.5538 29.0938 74.7376C29.692 73.0316 30.2949 71.3396 30.9026 69.6616C30.8965 69.6729 30.8777 69.707 30.8556 69.7415C30.8401 69.7717 30.8209 69.7987 30.8014 69.8257C30.7856 69.8486 30.7659 69.8721 30.7493 69.8879C29.9906 70.7089 27.6683 69.7531 26.7703 69.3118C23.8879 67.8957 15.5358 62.1127 4.60033 53.79C3.06695 60.7376 1.53338 67.6815 0 74.6291Z" fill="#00A699"/>
</g>
<path d="M29.2598 74.2634V74.2634C26.6959 74.5192 24.1211 73.8968 21.957 72.4981L3.15326 60.3447" stroke="#081F2D" stroke-width="0.5"/>
<path d="M30.3892 66.984C30.6852 67.6445 31.3715 69.218 30.7509 69.8878C29.9896 70.7098 27.6671 69.7521 26.7705 69.3115C23.8878 67.8946 15.5352 62.1108 4.60077 53.7881" stroke="#081F2D" stroke-width="0.5" stroke-linecap="round" stroke-linejoin="round"/>
<defs>
<linearGradient id="paint0_linear_917_2186" x1="2.87411" y1="80.1215" x2="34.7932" y2="68.3735" gradientUnits="userSpaceOnUse">
<stop stop-color="#543007"/>
<stop offset="1" stop-color="#E77C01"/>
</linearGradient>
<linearGradient id="paint1_linear_917_2186" x1="107.874" y1="35.3997" x2="75.9546" y2="23.6515" gradientUnits="userSpaceOnUse">
<stop stop-color="#543007"/>
<stop offset="1" stop-color="#E77C01"/>
</linearGradient>
<linearGradient id="paint2_linear_917_2186" x1="103.794" y1="37.5941" x2="73.3963" y2="29.7162" gradientUnits="userSpaceOnUse">
<stop stop-color="#543007"/>
<stop offset="1" stop-color="#E77C01"/>
</linearGradient>
<linearGradient id="paint3_linear_917_2186" x1="5.68949" y1="92.1669" x2="36.0873" y2="84.2887" gradientUnits="userSpaceOnUse">
<stop stop-color="#543007"/>
<stop offset="1" stop-color="#E77C01"/>
</linearGradient>
</defs>
</svg>
