<svg width="97" height="87" viewBox="0 0 97 87" fill="none" xmlns="http://www.w3.org/2000/svg">
<path fill-rule="evenodd" clip-rule="evenodd" d="M15.0987 52.4902C15.0987 71.5494 30.5492 86.9999 49.6084 86.9999C68.6676 86.9999 84.1181 71.5494 84.1181 52.4902C84.1181 33.431 68.6676 17.9805 49.6084 17.9805C30.5492 17.9805 15.0987 33.431 15.0987 52.4902Z" fill="#C6EBFA"/>
<mask id="mask0_917_2738" style="mask-type:luminance" maskUnits="userSpaceOnUse" x="0" y="16" width="31" height="30">
<path fill-rule="evenodd" clip-rule="evenodd" d="M0 16.2246H30.3652V45.3864H0V16.2246Z" fill="white"/>
</mask>
<g mask="url(#mask0_917_2738)">
<path fill-rule="evenodd" clip-rule="evenodd" d="M27.6363 39.4928C26.7845 40.714 23.8055 39.8648 22.6789 40.7173C21.5113 41.6007 21.5062 44.6868 20.1511 45.1551C18.7824 45.6278 16.8679 43.1987 15.4202 43.2278C13.9868 43.2564 12.1685 45.7635 10.7676 45.3377C9.416 44.9266 9.29619 41.8468 8.07493 40.9949C6.85366 40.1429 3.92173 41.094 3.06924 39.9675C2.18584 38.8 3.91074 36.2277 3.4427 34.8726C2.96998 33.504 0.0292991 32.546 0.000211689 31.0983C-0.0284689 29.6649 2.86604 28.5943 3.29197 27.1935C3.70286 25.8418 1.87706 23.3395 2.72894 22.1182C3.58102 20.897 6.55994 21.7462 7.68642 20.8937C8.85418 20.0103 8.85927 16.924 10.2144 16.4559C11.5829 15.9832 13.4976 18.4123 14.9453 18.3832C16.3785 18.3545 18.1967 15.8475 19.5976 16.2733C20.9493 16.6842 21.0691 19.7642 22.2903 20.616C23.5118 21.4681 26.4435 20.517 27.296 21.6435C28.1794 22.811 26.4545 25.3833 26.9226 26.7384C27.3953 28.107 30.3362 29.065 30.3651 30.5127C30.3937 31.9461 27.4992 33.0167 27.0735 34.4175C26.6624 35.7692 28.4882 38.2715 27.6363 39.4928Z" fill="#00A699"/>
</g>
<path d="M20.8508 26.9404L13.9489 33.8423L11.1714 31.0649" stroke="#060809"/>
<path fill-rule="evenodd" clip-rule="evenodd" d="M66.0573 47.3307C65.2301 48.4946 62.7001 52.1598 62.9145 56.4959C62.9503 57.2206 63.0526 58.939 63.9116 59.2555C64.9659 59.6438 66.6061 57.732 67.207 56.9306C69.1392 54.3534 73.9738 45.3865 79.962 32.9766C76.5799 35.7224 70.6001 40.9398 66.0573 47.3307Z" fill="#060809"/>
<path fill-rule="evenodd" clip-rule="evenodd" d="M66.0573 47.3307C65.2301 48.4946 62.7001 52.1598 62.9145 56.4959C62.9503 57.2206 63.0526 58.939 63.9116 59.2555C64.9659 59.6438 66.6061 57.732 67.207 56.9306C69.1392 54.3534 73.9738 45.3865 79.962 32.9766C76.5799 35.7224 70.6001 40.9398 66.0573 47.3307Z" stroke="#060809" strokeLinecap="round" strokeLinejoin="round"/>
<mask id="mask1_917_2738" style="mask-type:luminance" maskUnits="userSpaceOnUse" x="40" y="0" width="47" height="54">
<path fill-rule="evenodd" clip-rule="evenodd" d="M75.2415 0.00345795C70.87 0.154997 67.595 6.69764 66.4156 10.3946C65.9215 11.9456 65.2 14.86 65.5607 18.7372C65.2757 18.3442 59.3101 10.3659 52.4319 11.7652C51.7214 11.9094 48.5402 12.6526 47.6495 15.0114C47.0362 16.6307 47.6495 18.6326 48.9117 20.3458C48.5547 20.2699 44.4717 19.455 43.0616 21.5432C43.0037 21.6299 42.6251 22.2033 42.6178 22.9752C42.607 23.9707 43.213 25.0274 44.1759 26.0084C43.765 26.0988 42.2572 26.4738 41.4059 27.8479C40.7965 28.8289 40.7713 29.9182 40.8795 30.5241C41.1392 31.9596 42.6251 33.2295 44.5115 34.1417C44.039 34.2644 43.5954 34.4448 43.1914 34.6936C42.7982 34.9354 41.9543 35.4547 41.7092 36.3888C41.6152 36.7423 41.2438 38.5276 45.1571 41.745C49.4385 45.2615 53.4743 46.0767 57.7412 47.5519C60.7421 48.5868 65.081 50.3687 70.1052 53.5536L86.1076 37.9174C81.3832 34.9857 78.7218 31.8621 77.6651 29.994C74.5993 24.5838 74.2712 15.6824 76.9725 8.53706C77.8815 6.12789 79.566 2.78792 78.1268 1.03881C77.3612 0.109027 76.0189 0 75.4229 0C75.3507 0 75.2893 0.00142386 75.2415 0.00345795Z" fill="white"/>
</mask>
<g mask="url(#mask1_917_2738)">
<path fill-rule="evenodd" clip-rule="evenodd" d="M75.2415 0.00345795C70.87 0.154997 67.595 6.69764 66.4156 10.3946C65.9215 11.9456 65.2 14.86 65.5607 18.7372C65.2757 18.3442 59.3101 10.3659 52.4319 11.7652C51.7214 11.9094 48.5402 12.6526 47.6495 15.0114C47.0362 16.6307 47.6495 18.6326 48.9117 20.3458C48.5547 20.2699 44.4717 19.455 43.0616 21.5432C43.0037 21.6299 42.6251 22.2033 42.6178 22.9752C42.607 23.9707 43.213 25.0274 44.1759 26.0084C43.765 26.0988 42.2572 26.4738 41.4059 27.8479C40.7965 28.8289 40.7713 29.9182 40.8795 30.5241C41.1392 31.9596 42.6251 33.2295 44.5115 34.1417C44.039 34.2644 43.5954 34.4448 43.1914 34.6936C42.7982 34.9354 41.9543 35.4547 41.7092 36.3888C41.6152 36.7423 41.2438 38.5276 45.1571 41.745C49.4385 45.2615 53.4743 46.0767 57.7412 47.5519C60.7421 48.5868 65.081 50.3687 70.1052 53.5536L86.1076 37.9174C81.3832 34.9857 78.7218 31.8621 77.6651 29.994C74.5993 24.5838 74.2712 15.6824 76.9725 8.53706C77.8815 6.12789 79.566 2.78792 78.1268 1.03881C77.3612 0.109027 76.0189 0 75.4229 0C75.3507 0 75.2893 0.00142386 75.2415 0.00345795Z" fill="url(#paint0_linear_917_2738)"/>
</g>
<path d="M66.127 22.1493C64.7845 16.5696 65.7825 12.3747 66.4143 10.3945" stroke="#060809"/>
<path d="M66.8469 38.9885C66.0603 38.1663 64.9479 36.7893 64.1763 34.8186C62.9549 31.699 63.3031 28.9192 63.5393 27.6768" stroke="#060809"/>
<mask id="mask2_917_2738" style="mask-type:luminance" maskUnits="userSpaceOnUse" x="41" y="33" width="12" height="9">
<path fill-rule="evenodd" clip-rule="evenodd" d="M43.1921 34.6931C42.8624 34.8959 41.9629 35.4121 41.7089 36.3883C41.3734 37.6763 42.3795 38.8833 42.6464 39.2037C44.2478 41.1249 46.934 41.1222 47.925 41.1212C48.9256 41.1204 51.7336 41.1175 52.6429 39.3859C53.07 38.5723 52.8916 37.7324 52.8695 37.6354C52.4059 35.597 49.1827 33.9248 46.23 33.9248C45.1269 33.9248 44.0617 34.1581 43.1921 34.6931Z" fill="white"/>
</mask>
<g mask="url(#mask2_917_2738)">
<path fill-rule="evenodd" clip-rule="evenodd" d="M43.1921 34.6931C42.8624 34.8959 41.9629 35.4121 41.7089 36.3883C41.3734 37.6763 42.3795 38.8833 42.6464 39.2037C44.2478 41.1249 46.934 41.1222 47.925 41.1212C48.9256 41.1204 51.7336 41.1175 52.6429 39.3859C53.07 38.5723 52.8916 37.7324 52.8695 37.6354C52.4059 35.597 49.1827 33.9248 46.23 33.9248C45.1269 33.9248 44.0617 34.1581 43.1921 34.6931Z" fill="url(#paint1_linear_917_2738)"/>
</g>
<mask id="mask3_917_2738" style="mask-type:luminance" maskUnits="userSpaceOnUse" x="40" y="25" width="15" height="11">
<path fill-rule="evenodd" clip-rule="evenodd" d="M44.1814 26.0084C43.7126 26.1317 42.2334 26.521 41.4071 27.847C40.8187 28.791 40.7654 29.8813 40.8819 30.5237C41.6 34.4795 51.6166 37.1818 53.7473 34.5546C54.3372 33.8268 54.7198 32.2003 54.1358 30.9547C53.8928 30.4366 53.5472 30.1221 53.3456 29.9462C51.4012 28.2514 48.6198 25.8271 45.5874 25.8271C45.124 25.8271 44.6545 25.8837 44.1814 26.0084Z" fill="white"/>
</mask>
<g mask="url(#mask3_917_2738)">
<path fill-rule="evenodd" clip-rule="evenodd" d="M44.1814 26.0084C43.7126 26.1317 42.2334 26.521 41.4071 27.847C40.8187 28.791 40.7654 29.8813 40.8819 30.5237C41.6 34.4795 51.6166 37.1818 53.7473 34.5546C54.3372 33.8268 54.7198 32.2003 54.1358 30.9547C53.8928 30.4366 53.5472 30.1221 53.3456 29.9462C51.4012 28.2514 48.6198 25.8271 45.5874 25.8271C45.124 25.8271 44.6545 25.8837 44.1814 26.0084Z" fill="url(#paint2_linear_917_2738)"/>
</g>
<mask id="mask4_917_2738" style="mask-type:luminance" maskUnits="userSpaceOnUse" x="42" y="20" width="15" height="10">
<path fill-rule="evenodd" clip-rule="evenodd" d="M43.0645 21.542C42.6432 22.1614 42.6202 22.8184 42.6184 22.9756C42.573 26.8809 52.0419 31.7147 55.3866 29.3183C55.5515 29.2001 56.4479 28.5297 56.6509 27.4351C56.8948 26.1199 55.9935 24.9709 55.306 24.1204C52.8122 21.0339 49.2125 20.3954 48.9175 20.3476C48.5707 20.2914 47.7189 20.1533 46.749 20.1533C45.4022 20.1533 43.8281 20.4198 43.0645 21.542Z" fill="white"/>
</mask>
<g mask="url(#mask4_917_2738)">
<path fill-rule="evenodd" clip-rule="evenodd" d="M43.0645 21.542C42.6432 22.1614 42.6202 22.8184 42.6184 22.9756C42.573 26.8809 52.0419 31.7147 55.3866 29.3183C55.5515 29.2001 56.4479 28.5297 56.6509 27.4351C56.8948 26.1199 55.9935 24.9709 55.306 24.1204C52.8122 21.0339 49.2125 20.3954 48.9175 20.3476C48.5707 20.2914 47.7189 20.1533 46.749 20.1533C45.4022 20.1533 43.8281 20.4198 43.0645 21.542Z" fill="url(#paint3_linear_917_2738)"/>
</g>
<mask id="mask5_917_2738" style="mask-type:luminance" maskUnits="userSpaceOnUse" x="47" y="13" width="13" height="12">
<path fill-rule="evenodd" clip-rule="evenodd" d="M48.1642 14.0868C47.9543 14.3628 47.778 14.6691 47.6496 15.0094C46.3795 18.3689 50.3847 23.3671 54.5183 24.031C54.9325 24.0973 57.497 24.509 58.6878 22.9886C60.0006 21.3123 58.5999 18.6216 58.4474 18.3378C57.075 15.784 54.2004 15.2179 53.7165 15.1303L49.2926 13.0352C48.8731 13.3232 48.4805 13.6702 48.1642 14.0868Z" fill="white"/>
</mask>
<g mask="url(#mask5_917_2738)">
<path fill-rule="evenodd" clip-rule="evenodd" d="M48.1642 14.0868C47.9543 14.3628 47.778 14.6691 47.6496 15.0094C46.3795 18.3689 50.3847 23.3671 54.5183 24.031C54.9325 24.0973 57.497 24.509 58.6878 22.9886C60.0006 21.3123 58.5999 18.6216 58.4474 18.3378C57.075 15.784 54.2004 15.2179 53.7165 15.1303L49.2926 13.0352C48.8731 13.3232 48.4805 13.6702 48.1642 14.0868Z" fill="url(#paint4_linear_917_2738)"/>
</g>
<path d="M47.9224 41.1223C50.1208 41.3609 51.9641 40.6961 52.6402 39.387C52.6958 39.2796 53.0698 38.5288 52.8668 37.6365C52.6927 36.8702 52.1284 36.1558 51.3354 35.5625" stroke="#060809"/>
<path d="M53.3425 29.9482C53.5952 30.1616 53.9098 30.4887 54.1328 30.9565C54.743 32.2386 54.3165 33.8508 53.7441 34.5565C52.1074 36.5749 45.8166 35.448 42.663 33.0236" stroke="#060809"/>
<path d="M55.3029 24.1201C55.5248 24.3325 56.9721 25.7584 56.6476 27.4351C56.4395 28.5103 55.6051 29.1592 55.3832 29.3182C52.6173 31.3 45.6621 28.3366 43.3646 25.0432" stroke="#060809"/>
<path d="M53.7133 15.1328C54.1972 15.2203 57.0717 15.7862 58.4441 18.3402C58.5967 18.6241 59.9974 21.3146 58.6846 22.9909C57.4938 24.5116 54.9294 24.0997 54.5151 24.0332C51.8226 23.6009 49.1848 21.3297 48.0237 18.8702" stroke="#060809"/>
<mask id="mask6_917_2738" style="mask-type:luminance" maskUnits="userSpaceOnUse" x="63" y="32" width="34" height="41">
<path fill-rule="evenodd" clip-rule="evenodd" d="M63.6729 32.9805H96.2791V72.6643H63.6729V32.9805Z" fill="white"/>
</mask>
<g mask="url(#mask6_917_2738)">
<path fill-rule="evenodd" clip-rule="evenodd" d="M96.2791 45.5119L77.6121 72.6643C73.1011 67.9694 69.7616 64.9061 67.5977 62.8386C66.2874 61.586 64.9792 60.3479 63.6729 59.1246C63.6837 59.1321 63.7159 59.1541 63.7515 59.1746C63.7789 59.1948 63.8084 59.21 63.8379 59.2253C63.8627 59.2387 63.891 59.2507 63.9132 59.2572C64.9644 59.6461 66.6053 57.7359 67.207 56.9331C69.1393 54.3571 73.9742 45.391 79.9631 32.9805L96.2791 45.5119Z" fill="#00A699"/>
</g>
<path d="M67.2342 62.4889V62.4889C69.642 61.5518 71.6602 59.8249 72.9583 57.5909L85.0079 36.8525" stroke="#060809"/>
<path d="M62.9144 56.4969C62.9502 57.2216 63.0525 58.9402 63.9115 59.2565C64.9658 59.645 66.6059 57.7332 67.207 56.9316C69.1391 54.3546 73.9738 45.3875 79.9619 32.9775" stroke="#060809" strokeLinecap="round" strokeLinejoin="round"/>
<defs>
<linearGradient id="paint0_linear_917_2738" x1="105.993" y1="32.946" x2="69.2212" y2="6.66099" gradientUnits="userSpaceOnUse">
<stop stopColor="#543007"/>
<stop offset="1" stopColor="#EB7D01"/>
</linearGradient>
<linearGradient id="paint1_linear_917_2738" x1="72.5935" y1="39.8517" x2="59.5012" y2="23.9939" gradientUnits="userSpaceOnUse">
<stop stopColor="#543007"/>
<stop offset="1" stopColor="#EB7E01"/>
</linearGradient>
<linearGradient id="paint2_linear_917_2738" x1="72.7743" y1="32.8374" x2="57.5816" y2="18.3477" gradientUnits="userSpaceOnUse">
<stop stopColor="#543007"/>
<stop offset="1" stopColor="#E77C01"/>
</linearGradient>
<linearGradient id="paint3_linear_917_2738" x1="74.7478" y1="26.8739" x2="60.1042" y2="12.009" gradientUnits="userSpaceOnUse">
<stop stopColor="#543007"/>
<stop offset="1" stopColor="#EB7E01"/>
</linearGradient>
<linearGradient id="paint4_linear_917_2738" x1="77.3805" y1="17.6823" x2="55.6842" y2="5.52461" gradientUnits="userSpaceOnUse">
<stop stopColor="#543007"/>
<stop offset="1" stopColor="#EB7E01"/>
</linearGradient>
</defs>
</svg>
