<svg width="21" height="21" viewBox="0 0 21 21" fill="none" xmlns="http://www.w3.org/2000/svg">
<g clip-path="url(#clip0_2351_8784)">
<rect x="0.868408" width="20.1316" height="20.1316" rx="10.0658" fill="#FFE55C"/>
<path d="M18.8578 11.1401C18.5212 11.1401 18.2486 10.8675 18.2486 10.5309C18.2486 9.80284 18.2197 9.50889 18.1252 8.93927C18.0278 8.35137 17.5663 7.89446 16.9479 7.77718C16.3265 7.65838 14.6649 7.59441 13.4175 7.59441C12.1702 7.59441 10.5085 7.65838 9.88711 7.77718C9.26875 7.89598 8.80574 8.35137 8.70979 8.93927C8.61688 9.50889 8.58642 9.80284 8.58642 10.5309C8.58642 10.8675 8.3138 11.1401 7.9772 11.1401C7.64061 11.1401 7.36798 10.8675 7.36798 10.5309C7.36798 9.72973 7.40453 9.36572 7.50658 8.74127C7.6863 7.64315 8.53159 6.79481 9.65713 6.58006C10.5039 6.4171 12.487 6.37445 13.416 6.37445C14.345 6.37445 16.328 6.4171 17.1749 6.58006C18.3004 6.79634 19.1442 7.64468 19.3254 8.74127C19.4275 9.3642 19.464 9.72821 19.464 10.5309C19.464 10.8675 19.1914 11.1401 18.8548 11.1401H18.8578Z" fill="black"/>
<path d="M16.5673 19.9387C16.5673 18.734 17.3471 17.7089 18.427 17.3358C17.5634 15.2965 16.7181 13.6607 16.7181 13.6607L10.6593 13.3622C10.6593 13.3622 7.81276 11.996 5.97292 11.1873C5.00578 10.7624 4.58085 10.7334 4.34325 11.105C4.25644 11.2406 4.27319 11.4462 4.30213 11.629C4.32954 11.8087 4.27471 11.8498 4.12241 11.9047C3.93812 11.9717 3.00449 12.2504 3.11415 13.0363C3.16441 13.3927 3.501 13.7308 3.99752 13.8511C4.79864 14.0445 5.39263 13.9623 5.72314 14.1268C6.06887 14.3004 8.35649 15.56 10.0334 16.7921C10.0334 16.7921 10.0775 19.3767 10.6167 21.2927C11.6387 21.8562 12.8129 22.176 14.0634 22.176C15.1357 22.176 16.1531 21.9385 17.0669 21.5166C16.7531 21.0688 16.5658 20.5251 16.5658 19.9387H16.5673Z" fill="url(#paint0_linear_2351_8784)"/>
<path d="M24.6319 18.1323C24.4674 17.3936 23.2231 17.2854 22.9748 17.1012C22.326 16.6214 20.71 15.5553 19.4215 14.7267C18.6265 14.2165 17.6609 13.4961 16.5003 13.4961L17.3684 17.0555C17.3684 17.0555 17.6624 17.2184 18.1117 17.4682C18.4772 17.2885 18.8869 17.1849 19.321 17.1849C20.7222 17.1849 21.8782 18.2358 22.0503 19.5913C22.3397 19.7391 22.5681 19.8487 22.6976 19.9005C23.1119 20.0665 23.453 20.0574 23.5261 19.8091C23.5871 19.6066 23.5261 19.3218 23.5261 19.3218C24.3547 19.1558 24.7415 18.6318 24.6304 18.1338L24.6319 18.1323Z" fill="#698FFF"/>
<path d="M10.3747 13.5662L16.8066 13.624C15.7587 14.5957 13.1573 16.8103 11.6023 16.5422C10.0061 16.2665 10.3732 13.5662 10.3732 13.5662H10.3747Z" fill="#3C58DA"/>
<path d="M7.22419 11.9751C7.7919 11.9657 8.23993 11.2157 8.22491 10.2998C8.20988 9.38392 7.73748 8.64898 7.16977 8.65829C6.60207 8.66761 6.15404 9.41764 6.16907 10.3335C6.18409 11.2494 6.65649 11.9844 7.22419 11.9751Z" fill="#43D88C"/>
<path d="M7.92177 12.3567C8.62153 12.3452 9.17378 11.4209 9.15526 10.2922C9.13674 9.16352 8.55447 8.25785 7.85471 8.26933C7.15496 8.2808 6.60272 9.2051 6.62124 10.3338C6.63976 11.4625 7.22204 12.3681 7.92177 12.3567Z" fill="black"/>
<path d="M18.8582 10.5308C18.8582 9.77387 18.8277 9.44946 18.7272 8.84024C18.5871 7.9919 17.9337 7.34461 17.0625 7.17859C16.3573 7.04304 14.6256 6.98364 13.4178 6.98364C12.2101 6.98364 10.4769 7.04304 9.77323 7.17859C8.90357 7.34461 8.24866 7.99343 8.10854 8.84024C8.00802 9.44946 7.97754 9.77235 7.97754 10.5308C7.97754 11.2878 8.00802 11.6122 8.10854 12.2214C8.24866 13.0698 8.90205 13.7171 9.77323 13.8831C10.4784 14.0186 12.2101 14.078 13.4178 14.078C14.6256 14.078 16.3589 14.0186 17.0625 13.8831C17.9322 13.7171 18.5871 13.0682 18.7272 12.2214C18.8277 11.6122 18.8582 11.2893 18.8582 10.5308Z" fill="#698FFF"/>
<path d="M16.4654 10.3481C16.738 10.3481 16.9589 10.0801 16.9589 9.74956C16.9589 9.41898 16.738 9.151 16.4654 9.151C16.1929 9.151 15.9719 9.41898 15.9719 9.74956C15.9719 10.0801 16.1929 10.3481 16.4654 10.3481Z" fill="black"/>
<path d="M9.10754 10.3481C9.38008 10.3481 9.60101 10.0801 9.60101 9.74956C9.60101 9.41898 9.38008 9.151 9.10754 9.151C8.83501 9.151 8.61407 9.41898 8.61407 9.74956C8.61407 10.0801 8.83501 10.3481 9.10754 10.3481Z" fill="black"/>
<path d="M14.4381 13.2236C14.1655 13.3013 13.8867 13.2434 13.6842 13.1307C13.4847 13.0195 13.3567 12.855 13.378 12.7103C13.4116 12.4682 14.6193 12.0508 14.8859 12.1361C14.9879 12.1696 15.0443 12.2732 15.0534 12.4057C15.0732 12.6875 14.8813 13.0956 14.4381 13.2221V13.2236Z" fill="black"/>
<path d="M14.4381 13.2236C14.1654 13.3013 13.8867 13.2434 13.6841 13.1307C13.8517 12.9327 14.1091 12.7408 14.4243 12.5976C14.6406 12.4986 14.8554 12.4362 15.0534 12.4057C15.0732 12.6875 14.8813 13.0956 14.4381 13.2221V13.2236Z" fill="#FF78B8"/>
<path d="M10.9122 8.47009H14.4746C15.0047 8.47009 15.4342 8.89959 15.4342 9.42961V10.5506C15.4342 11.236 14.8782 11.7919 14.1929 11.7919H11.5016C10.6457 11.7919 9.9527 11.0974 9.9527 10.2429V9.42961C9.9527 8.89959 10.3822 8.47009 10.9122 8.47009Z" fill="#B8CDFF"/>
<path d="M11.456 11.3182C11.7891 11.3182 12.0591 11.192 12.0591 11.0364C12.0591 10.8808 11.7891 10.7546 11.456 10.7546C11.1229 10.7546 10.8528 10.8808 10.8528 11.0364C10.8528 11.192 11.1229 11.3182 11.456 11.3182Z" fill="#698FFF"/>
<path d="M13.2593 11.3182C13.5923 11.3182 13.8624 11.192 13.8624 11.0364C13.8624 10.8808 13.5923 10.7546 13.2593 10.7546C12.9262 10.7546 12.6561 10.8808 12.6561 11.0364C12.6561 11.192 12.9262 11.3182 13.2593 11.3182Z" fill="#698FFF"/>
<path d="M18.6023 12.3555C17.8849 12.3372 17.3275 11.3853 17.3564 10.2278C17.3854 9.0703 17.99 8.14733 18.7074 8.16561L19.3547 8.18236L19.2496 12.3723L18.6023 12.3555Z" fill="black"/>
<path d="M20.5989 10.308C20.6278 9.15097 20.0698 8.19847 19.3524 8.18055C18.6352 8.16264 18.0302 9.08613 18.0013 10.2432C17.9725 11.4003 18.5306 12.3528 19.2478 12.3707C19.9651 12.3886 20.5699 11.4651 20.5989 10.308Z" fill="black"/>
<path d="M20.7244 10.3122C20.7501 9.28633 20.2554 8.44182 19.6197 8.42595C18.984 8.41008 18.4479 9.22887 18.4223 10.2548C18.3967 11.2806 18.8912 12.1252 19.5269 12.141C20.1627 12.1569 20.6988 11.3381 20.7244 10.3122Z" fill="#43D88C"/>
<path d="M19.7827 11.4904C19.6273 11.4721 19.4872 11.3442 19.3867 11.1264C19.2846 10.904 19.2328 10.6131 19.2435 10.3039C19.2648 9.64291 19.5496 9.12964 19.8938 9.13573C20.2365 9.14183 20.4894 9.66423 20.468 10.3252C20.4467 10.9862 20.1619 11.498 19.8177 11.4934C19.8055 11.4934 19.7948 11.4934 19.7827 11.4904ZM19.9136 9.25606C19.906 9.25606 19.8984 9.25453 19.8893 9.25453C19.6166 9.24996 19.3699 9.73125 19.3516 10.307C19.3425 10.5963 19.3897 10.869 19.4841 11.0731C19.574 11.2665 19.6928 11.3731 19.8207 11.3761C20.0934 11.3807 20.3401 10.8994 20.3584 10.3237C20.3766 9.76476 20.1741 9.28804 19.9136 9.25606Z" fill="#107C10"/>
<path d="M19.8238 11.5665H19.8162C19.8024 11.5665 19.7872 11.5665 19.7735 11.5634C19.5923 11.5406 19.4308 11.3974 19.3196 11.1568C19.213 10.9253 19.1597 10.6207 19.1689 10.3008C19.1917 9.58803 19.507 9.05497 19.8938 9.06258C20.0141 9.06563 20.1299 9.12046 20.2289 9.22402C20.4391 9.44487 20.5564 9.85761 20.5411 10.3267C20.5183 11.0349 20.2106 11.565 19.8238 11.565V11.5665ZM19.8862 9.32759C19.6836 9.32759 19.4445 9.74491 19.4262 10.3084C19.4171 10.5872 19.4613 10.8476 19.5527 11.0425C19.6288 11.2055 19.7278 11.3015 19.8238 11.303H19.8268C20.0294 11.303 20.2685 10.8857 20.2868 10.3221C20.305 9.76623 20.0994 9.35348 19.906 9.32911C19.906 9.32911 19.8938 9.32911 19.8877 9.32911L19.8862 9.32759Z" fill="#107C10"/>
<path d="M15.7037 14.8671H13.075C12.9485 14.8671 12.8465 14.7651 12.8465 14.6386C12.8465 14.5122 12.9485 14.4102 13.075 14.4102H15.7037C16.6678 14.4102 17.5634 13.8512 17.9868 12.9846L18.4452 12.0449C18.5001 11.9322 18.6371 11.885 18.7514 11.9398C18.8641 11.9946 18.9113 12.1317 18.8565 12.2459L18.398 13.1856C17.8985 14.2076 16.8415 14.8671 15.7037 14.8671Z" fill="black"/>
<path d="M13.739 13.6484H12.6942C12.3577 13.6484 12.085 13.9212 12.085 14.2577C12.085 14.5941 12.3577 14.8669 12.6942 14.8669H13.739C14.0754 14.8669 14.3482 14.5941 14.3482 14.2577C14.3482 13.9212 14.0754 13.6484 13.739 13.6484Z" fill="black"/>
<path d="M15.1175 5.73018C15.1175 5.73018 15.2836 5.66012 15.5211 5.52761C15.6887 5.43471 15.8973 5.30373 16.0877 5.16817C16.7746 4.67318 16.9224 3.70605 15.8989 3.47606C15.8989 3.47606 14.9165 2.88361 13.7986 4.27719C13.4818 4.67166 13.2609 4.62445 13.0066 4.63054L14.4048 5.7119L15.1175 5.73018Z" fill="#57F287"/>
<path d="M13.9568 5.59009C13.8426 5.59009 13.7451 5.5048 13.7299 5.39057C13.7147 5.26568 13.8015 5.15297 13.9264 5.13622C13.9522 5.13165 15.2605 4.89253 16.1013 2.17693C16.1393 2.05661 16.2673 1.98959 16.3876 2.02615C16.5079 2.0627 16.5749 2.19064 16.5384 2.31248C15.5987 5.35554 14.0528 5.58248 13.9873 5.59009C13.9781 5.59009 13.9675 5.59161 13.9583 5.59161L13.9568 5.59009Z" fill="#038E3C"/>
<path d="M15.521 5.52759C15.5682 5.50018 14.828 5.92815 13.6964 4.80262C13.541 4.64727 13.2912 4.39292 13.2044 4.30763C12.7566 3.86899 11.7179 2.92926 10.7081 3.52325C10.7081 3.52325 9.83388 4.11268 10.5726 5.03717C10.7584 5.27019 10.9975 5.45448 11.264 5.58547C11.9646 5.92968 13.6948 6.5587 15.521 5.52759Z" fill="#29CC7A"/>
<path d="M10.8027 3.47302C10.7707 3.48825 10.7387 3.50653 10.7067 3.52481C10.7067 3.52481 10.5651 3.62076 10.4432 3.79591C10.5666 4.0792 10.7631 4.44473 11.0707 4.81026C11.453 5.26413 12.0622 5.77435 12.9868 6.07592C13.5107 6.12313 14.1047 6.08658 14.7246 5.88097C11.9846 5.87031 11.0662 4.18276 10.8012 3.47302H10.8027Z" fill="#038E3C"/>
<path d="M16.9283 17.278L17.7264 17.6984C17.8726 17.5933 18.0294 17.5035 18.1955 17.4288L17.1415 16.8744C17.0303 16.815 16.8917 16.8592 16.8323 16.9703C16.7729 17.0815 16.8171 17.2202 16.9283 17.2796V17.278Z" fill="#3C58DA"/>
</g>
<rect x="1.36841" y="0.5" width="19.1316" height="19.1316" rx="9.5658" stroke="white"/>
<defs>
<linearGradient id="paint0_linear_2351_8784" x1="8.10214" y1="9.69318" x2="16.2246" y2="26.2106" gradientUnits="userSpaceOnUse">
<stop offset="0.06" stop-color="#4E75E4"/>
<stop offset="0.47" stop-color="#698FFF"/>
<stop offset="0.65" stop-color="#648AFA"/>
<stop offset="0.86" stop-color="#567DEC"/>
<stop offset="1" stop-color="#4970DF"/>
</linearGradient>
<clipPath id="clip0_2351_8784">
<rect x="0.868408" width="20.1316" height="20.1316" rx="10.0658" fill="white"/>
</clipPath>
</defs>
</svg>
